<?xml version="1.0" encoding="utf-8"?>
<!-- Generator: Adobe Illustrator 17.0.0, SVG Export Plug-In . SVG Version: 6.00 Build 0)  -->
<!DOCTYPE svg PUBLIC "-//W3C//DTD SVG 1.1//EN" "http://www.w3.org/Graphics/SVG/1.1/DTD/svg11.dtd">
<svg version="1.1" id="Layer_1" xmlns="http://www.w3.org/2000/svg" xmlns:xlink="http://www.w3.org/1999/xlink" x="0px" y="0px"
	 width="73px" height="68px" viewBox="0 0 73 68" enable-background="new 0 0 73 68" xml:space="preserve">
<path fill="#8BC34A" d="M40.256,24.137c0.626-1.499,1.041-3.235,1.134-5.057c0.136-1.829-0.114-3.733-0.655-5.584
	c-0.572-1.843-1.435-3.629-2.652-5.171c-1.188-1.539-2.684-2.849-4.255-3.701c-1.571-0.855-3.203-1.217-4.338-1.188
	c-0.562-0.019-1.049,0.136-1.331,0.221c-0.29,0.093-0.447,0.144-0.447,0.144s0.032,0.157,0.093,0.447
	c0.064,0.282,0.075,0.759,0.114,1.196c0.043,0.969-0.051,2.133-0.176,3.414c-0.208,2.506-0.157,5.451,0.759,8.34
	c0.447,1.446,1.041,2.881,1.832,4.213c0.759,1.331,1.675,2.57,2.609,3.621c0.844,0.935,2.745,3.11,3.443,3.661
	c0.176-1.228,0.322-2.487,0.354-3.776c0.072-0.895,0.011-1.789,0-2.673c-0.021-0.895-0.178-1.747-0.25-2.591
	c-0.154-0.82-0.354-1.611-0.519-2.37c-0.261-0.73-0.511-1.417-0.74-2.05c-0.333-0.591-0.623-1.145-0.884-1.632
	c-0.229-0.511-0.612-0.834-0.831-1.156c-0.501-0.623-0.78-0.977-0.78-0.977s0.312,0.333,0.841,0.916
	c0.25,0.312,0.666,0.612,0.937,1.113c0.301,0.469,0.634,1.009,1.009,1.59c0.28,0.626,0.591,1.313,0.916,2.04
	c0.229,0.759,0.487,1.56,0.706,2.402c0.146,0.855,0.375,1.728,0.458,2.633c0.082,0.905,0.208,1.829,0.208,2.756
	c0.032,1.049,0.021,2.101-0.029,3.121c0.083-0.093,0.186-0.168,0.258-0.261C38.821,26.893,39.623,25.633,40.256,24.137
	L40.256,24.137z"/>
<rect x="2" y="3.436" fill="none" width="71.576" height="63.907"/>
<path fill="#8BC34A" d="M32.01,31.814c0.144,0.229,0.258,0.447,0.383,0.666c-6.947,1.331-12.584,6.346-14.81,12.928l0.455,0.053
	c0.573,0.011,1.446,0.144,2.945,0.405c0.032-0.437,0.186-0.873,0.458-1.238c1.113-1.457,2.713-2.226,4.649-2.226
	c2.913,0.011,5.991,0.093,9.102,1.041c1.643,0.49,3.318,0.394,5.025-0.282c4.897-1.965,9.213-1.787,12.688,0.479
	c0.437,0.282,0.884,0.583,1.331,0.884c-2.474-6.303-8.135-11.016-15.01-12.137c0.189-0.325,0.365-0.658,0.573-0.991
	c0.2-0.312,0.583-1.142,0.533-1.339c-0.021-0.115-0.021-0.24-0.021-0.354c-0.698,0.873-1.331,1.757-1.883,2.599
	c-0.343-0.04-0.687-0.051-1.041-0.083c0.186-1.299,0.333-2.705,0.405-4.181c-0.114,0.114-0.208,0.229-0.333,0.333
	c-0.229,0.154-0.562,1.31-0.644,1.789c-0.114,0.695-0.25,1.35-0.394,1.986c-0.114,0-0.229-0.021-0.354-0.021
	c-0.999,0-1.976,0.083-2.942,0.229c-0.49-0.738-1.009-1.478-1.614-2.237c0,0.125,0,0.24-0.021,0.365
	C31.437,30.679,31.821,31.51,32.01,31.814L32.01,31.814z"/>
<path fill="#8BC34A" d="M43.335,26.445c0.501-0.479,1.062-0.863,1.571-1.278c0.541-0.376,1.092-0.698,1.603-1.02
	c0.541-0.25,1.06-0.49,1.539-0.708c0.498-0.144,0.956-0.28,1.374-0.394c0.394-0.147,0.78-0.125,1.071-0.178
	c0.604-0.061,0.945-0.093,0.945-0.093s-0.341,0.064-0.935,0.168c-0.293,0.072-0.666,0.072-1.052,0.248
	c-0.383,0.136-0.831,0.304-1.31,0.479c-0.447,0.25-0.927,0.519-1.446,0.801c-0.469,0.354-0.977,0.698-1.478,1.102
	c-0.455,0.437-0.977,0.841-1.425,1.342c-0.458,0.498-0.935,0.977-1.342,1.528c-0.623,0.738-1.164,1.539-1.675,2.33
	c0.666,0.032,2.841-0.261,3.786-0.375c1.062-0.133,2.197-0.383,3.289-0.77c1.113-0.351,2.162-0.884,3.139-1.475
	c1.968-1.196,3.464-2.841,4.588-4.38c0.572-0.791,1.102-1.497,1.603-2.029c0.248-0.226,0.487-0.498,0.666-0.623
	c0.176-0.136,0.269-0.208,0.269-0.208s-0.061-0.114-0.176-0.312c-0.125-0.189-0.322-0.522-0.655-0.78
	c-0.636-0.594-1.739-1.185-3.06-1.488c-1.321-0.29-2.828-0.301-4.274-0.011c-1.457,0.272-2.841,0.855-4.077,1.624
	c-1.238,0.791-2.322,1.747-3.163,2.849c-0.852,1.092-1.478,2.287-1.872,3.454c-0.386,1.174-0.551,2.287-0.551,3.171
	c0,0.093,0.021,0.189,0.021,0.282c0.477-0.615,0.988-1.206,1.539-1.789C42.296,27.383,42.837,26.925,43.335,26.445L43.335,26.445z"
	/>
<path fill="#8BC34A" d="M14.638,22.172c0.501,0.53,1.03,1.236,1.592,2.026c1.134,1.531,2.631,3.185,4.585,4.38
	c0.98,0.594,2.029,1.124,3.142,1.478c1.102,0.383,2.237,0.634,3.297,0.769c0.948,0.114,3.121,0.394,3.786,0.362
	c-0.509-0.791-1.06-1.579-1.675-2.319c-0.415-0.551-0.895-1.028-1.342-1.528c-0.447-0.498-0.967-0.905-1.425-1.353
	c-0.498-0.394-1.009-0.738-1.486-1.092c-0.511-0.28-0.999-0.551-1.435-0.801c-0.49-0.176-0.927-0.343-1.321-0.487
	c-0.386-0.178-0.762-0.168-1.052-0.24c-0.594-0.114-0.927-0.178-0.927-0.178s0.343,0.043,0.937,0.106
	c0.301,0.051,0.687,0.019,1.081,0.176c0.405,0.115,0.873,0.25,1.374,0.394c0.477,0.218,0.999,0.458,1.539,0.708
	c0.509,0.322,1.06,0.644,1.6,1.02c0.501,0.415,1.073,0.801,1.571,1.278c0.501,0.469,1.031,0.937,1.488,1.467
	c0.551,0.572,1.049,1.174,1.539,1.789c0-0.093,0.021-0.186,0.021-0.282c0.011-0.892-0.168-2.005-0.551-3.182
	c-0.397-1.164-1.02-2.362-1.872-3.443c-0.844-1.102-1.925-2.069-3.163-2.849c-1.238-0.77-2.62-1.353-4.077-1.624
	c-1.446-0.29-2.953-0.29-4.276,0.011c-1.321,0.293-2.434,0.895-3.057,1.488c-0.333,0.261-0.53,0.594-0.655,0.78
	c-0.114,0.197-0.186,0.311-0.186,0.311s0.104,0.064,0.28,0.208C14.148,21.671,14.387,21.943,14.638,22.172L14.638,22.172z"/>
<path fill="#8BC34A" d="M62.318,54.562c-2.996-4.069-6.926-7.094-11.056-9.788c-3.361-2.184-7.187-1.728-10.744-0.301
	c-2.175,0.873-4.338,0.988-6.428,0.343c-2.799-0.844-5.619-0.937-8.468-0.937c-1.228-0.011-2.237,0.415-2.964,1.385
	c-0.407,0.53,2.921,2.767,5.784,2.767c-0.533,1.049-9.778-1.188-11.005-1.094l-6.99-0.895c-2.487-0.208-2.476-1.142-4.921,0.24
	c-0.083,0.053-0.208,0.053-0.301,0.043c-1.363-0.083-2.133,0.354-2.892,1.249c-0.437,0.519-0.394,1.164-0.168,1.768
	c0.25,0.634,0.876,0.469,1.385,0.676c3.121,1.238,4.13,1.84,8.374,2.881c3.014,0.748,5.949,1.654,8.955,2.341
	c1.249,0.28,2.516,0.487,3.64,1.121c2.383,1.342,4.91,1.749,7.634,1.624c3.099-0.136,6.199-0.021,9.298-0.032
	c5.429-0.032,9.559,2.154,12.358,6.939l17.495-0.032C67.489,60.385,65.803,59.304,62.318,54.562L62.318,54.562z"/>
<rect x="2" y="3.436" fill="none" width="71.576" height="63.907"/>
</svg>
