<?xml version="1.0" encoding="utf-8"?>
<!-- Generator: Adobe Illustrator 17.0.0, SVG Export Plug-In . SVG Version: 6.00 Build 0)  -->
<!DOCTYPE svg PUBLIC "-//W3C//DTD SVG 1.1//EN" "http://www.w3.org/Graphics/SVG/1.1/DTD/svg11.dtd">
<svg version="1.1" id="Layer_1" xmlns="http://www.w3.org/2000/svg" xmlns:xlink="http://www.w3.org/1999/xlink" x="0px" y="0px"
	 width="73px" height="68px" viewBox="0 0 73 68" enable-background="new 0 0 73 68" xml:space="preserve">
<g>
	<path fill="#8BC34A" d="M29.256,18.963c0-8.205,7.556-17.886,7.556-17.886s7.562,9.68,7.562,17.886s-7.562,11.836-7.562,11.836
		S29.256,27.175,29.256,18.963L29.256,18.963z M19.765,40.431c6.578,4.91,14.007,1.026,14.007,1.026s1.614-8.226-4.964-13.136
		c-6.571-4.911-18.849-4.649-18.849-4.649S13.187,35.514,19.765,40.431L19.765,40.431z M41.193,42.012
		c2.432,0.864,7.79,2.063,12.673-1.581c6.573-4.916,9.8-16.759,9.8-16.759s-12.271-0.262-18.849,4.649
		c-4.326,3.229-5.103,7.897-5.131,10.711h-0.007v11.301H12.424c0,9.197,10.992,16.591,24.388,16.591
		c13.398,0,24.397-7.394,24.397-16.591H41.193V42.012z"/>
</g>
</svg>
