<?xml version="1.0" encoding="utf-8"?>
<!-- Generator: Adobe Illustrator 17.0.0, SVG Export Plug-In . SVG Version: 6.00 Build 0)  -->
<!DOCTYPE svg PUBLIC "-//W3C//DTD SVG 1.1//EN" "http://www.w3.org/Graphics/SVG/1.1/DTD/svg11.dtd">
<svg version="1.1" id="Layer_1" xmlns="http://www.w3.org/2000/svg" xmlns:xlink="http://www.w3.org/1999/xlink" x="0px" y="0px"
	 width="73px" height="68px" viewBox="0 0 73 68" enable-background="new 0 0 73 68" xml:space="preserve">
<g>
	<path fill="#FFFFFF" d="M8.237,25.604c0.871,0.615,3.497,2.44,7.879,5.476c4.384,3.038,7.741,5.377,10.072,7.015
		c0.256,0.179,0.802,0.571,1.634,1.172c0.834,0.603,1.525,1.089,2.076,1.46c0.55,0.373,1.216,0.788,1.999,1.251
		c0.781,0.461,1.518,0.807,2.209,1.037c0.694,0.231,1.334,0.346,1.924,0.346h0.076c0.59,0,1.23-0.115,1.924-0.346
		c0.691-0.23,1.428-0.578,2.209-1.037c0.781-0.463,1.447-0.878,1.999-1.251c0.551-0.371,1.242-0.857,2.074-1.46
		c0.834-0.602,1.38-0.993,1.635-1.172c2.357-1.641,8.353-5.803,17.99-12.493c1.871-1.306,3.433-2.882,4.688-4.727
		c1.256-1.845,1.885-3.778,1.885-5.803c0-1.691-0.61-3.14-1.827-4.345c-1.216-1.205-2.659-1.806-4.324-1.806H7.777
		c-1.975,0-3.493,0.666-4.557,1.999c-1.062,1.332-1.594,2.997-1.594,4.997c0,1.615,0.705,3.363,2.115,5.248
		C5.148,23.047,6.648,24.528,8.237,25.604L8.237,25.604z M8.237,25.604"/>
	<path fill="#FFFFFF" d="M66.664,29.716c-8.404,5.688-14.785,10.108-19.142,13.26c-1.46,1.078-2.647,1.917-3.557,2.518
		c-0.908,0.604-2.12,1.219-3.631,1.845c-1.514,0.629-2.921,0.942-4.23,0.942h-0.076c-1.309,0-2.718-0.313-4.23-0.942
		c-1.511-0.626-2.723-1.241-3.633-1.845c-0.908-0.601-2.094-1.44-3.554-2.518c-3.461-2.537-9.828-6.957-19.105-13.26
		c-1.461-0.975-2.755-2.09-3.882-3.345v30.52c0,1.693,0.602,3.14,1.806,4.345c1.205,1.205,2.654,1.806,4.345,1.806h56.582
		c1.691,0,3.14-0.601,4.345-1.806c1.205-1.205,1.806-2.652,1.806-4.345v-30.52C69.406,27.601,68.125,28.716,66.664,29.716
		L66.664,29.716z M66.664,29.716"/>
</g>
</svg>
