<?xml version="1.0" encoding="utf-8"?>
<!-- Generator: Adobe Illustrator 17.0.0, SVG Export Plug-In . SVG Version: 6.00 Build 0)  -->
<!DOCTYPE svg PUBLIC "-//W3C//DTD SVG 1.1//EN" "http://www.w3.org/Graphics/SVG/1.1/DTD/svg11.dtd">
<svg version="1.1" id="Layer_1" xmlns="http://www.w3.org/2000/svg" xmlns:xlink="http://www.w3.org/1999/xlink" x="0px" y="0px"
	 width="73px" height="68px" viewBox="0 0 73 68" enable-background="new 0 0 73 68" xml:space="preserve">
<path fill="#FFFFFF" d="M54.859,45.262c0.477-0.477,0.651-0.998,0.521-1.562c-0.044-0.26-0.152-0.499-0.326-0.716
	c-0.174-0.217-0.369-0.412-0.586-0.586l-7.682-4.492l-0.065-0.065c-0.26-0.13-0.607-0.195-1.041-0.195
	c-0.694,0-1.237,0.217-1.627,0.651l-2.279,2.279c-0.13,0.13-0.304,0.196-0.521,0.196c-0.521-0.087-1.15-0.326-1.888-0.716
	c-0.608-0.347-1.378-0.836-2.311-1.465c-0.933-0.629-2.008-1.552-3.222-2.767c-0.869-0.911-1.671-1.823-2.409-2.734
	c-0.608-0.738-1.172-1.541-1.693-2.408c-0.52-0.868-0.803-1.628-0.846-2.279c0-0.217,0.065-0.391,0.195-0.521l1.953-1.953
	c0.347-0.347,0.564-0.77,0.651-1.269c0.087-0.499,0.022-0.966-0.195-1.4l-4.232-7.942c-0.347-0.694-0.868-1.041-1.562-1.041
	c-0.434,0-0.868,0.174-1.302,0.52l-5.208,5.274c-0.261,0.217-0.488,0.531-0.683,0.944c-0.195,0.412-0.315,0.792-0.358,1.14v1.627
	l0.847,4.036c0.564,2.691,1.551,4.709,2.962,6.054c1.411,1.345,3.483,3.885,6.217,7.617c2.344,2.344,4.535,4.188,6.575,5.534
	c2.04,1.345,3.874,2.354,5.501,3.027c1.628,0.673,3.006,1.096,4.134,1.269c1.128,0.174,1.931,0.26,2.409,0.26
	c0.217,0,0.391-0.011,0.52-0.033c0.131-0.021,0.217-0.032,0.261-0.032c0.347-0.044,0.716-0.163,1.107-0.358
	c0.391-0.195,0.716-0.423,0.977-0.684L54.859,45.262z M36.5,1.449c4.47,0,8.691,0.857,12.662,2.572
	c3.972,1.714,7.421,4.036,10.351,6.966c2.929,2.929,5.251,6.38,6.966,10.351c1.714,3.971,2.572,8.192,2.572,12.662
	c0,2.994-0.391,5.881-1.172,8.659c-0.782,2.777-1.877,5.371-3.288,7.78c-1.411,2.408-3.103,4.6-5.078,6.575
	c-1.975,1.975-4.167,3.668-6.575,5.078c-2.409,1.411-5.002,2.506-7.78,3.288c-2.777,0.781-5.664,1.172-8.658,1.172
	c-2.995,0-5.881-0.391-8.659-1.172c-2.778-0.782-5.371-1.877-7.78-3.288c-2.409-1.411-4.6-3.103-6.575-5.078
	c-1.975-1.975-3.668-4.167-5.078-6.575c-1.411-2.409-2.507-5.002-3.288-7.78C4.34,39.881,3.949,36.994,3.949,34
	c0-2.995,0.391-5.881,1.172-8.659c0.781-2.778,1.877-5.371,3.288-7.78c1.41-2.409,3.103-4.6,5.078-6.575
	c1.975-1.975,4.167-3.668,6.575-5.078c2.409-1.411,5.002-2.507,7.78-3.288C30.619,1.84,33.505,1.449,36.5,1.449L36.5,1.449z
	 M36.5,1.449"/>
</svg>
