<?xml version="1.0" encoding="utf-8"?>
<!-- Generator: Adobe Illustrator 17.0.0, SVG Export Plug-In . SVG Version: 6.00 Build 0)  -->
<!DOCTYPE svg PUBLIC "-//W3C//DTD SVG 1.1//EN" "http://www.w3.org/Graphics/SVG/1.1/DTD/svg11.dtd">
<svg version="1.1" id="Layer_1" xmlns="http://www.w3.org/2000/svg" xmlns:xlink="http://www.w3.org/1999/xlink" x="0px" y="0px"
	 width="73px" height="68px" viewBox="0 0 73 68" enable-background="new 0 0 73 68" xml:space="preserve">
<path fill="#FFFFFF" d="M55.749,22.213c0-11.473-9.306-20.779-20.78-20.779c-11.479,0-20.785,9.306-20.785,20.779
	c0,9.907,15.48,36.369,19.72,43.436c0.224,0.371,0.626,0.599,1.065,0.599c0.434,0,0.837-0.228,1.059-0.599
	C40.269,58.588,55.749,32.119,55.749,22.213L55.749,22.213z M34.969,38.293c-8.865,0-16.085-7.214-16.085-16.08
	s7.22-16.079,16.085-16.079c8.867,0,16.081,7.212,16.081,16.079S43.836,38.293,34.969,38.293L34.969,38.293z M34.969,38.293"/>
<rect x="14.184" y="1.578" fill="none" width="42.607" height="64.844"/>
</svg>
