<?xml version="1.0" encoding="utf-8"?>
<!-- Generator: Adobe Illustrator 17.0.0, SVG Export Plug-In . SVG Version: 6.00 Build 0)  -->
<!DOCTYPE svg PUBLIC "-//W3C//DTD SVG 1.1//EN" "http://www.w3.org/Graphics/SVG/1.1/DTD/svg11.dtd">
<svg version="1.1" id="Layer_1" xmlns="http://www.w3.org/2000/svg" xmlns:xlink="http://www.w3.org/1999/xlink" x="0px" y="0px"
	 width="73px" height="68px" viewBox="0 0 73 68" enable-background="new 0 0 73 68" xml:space="preserve">
<g>
	<path fill="#4D8C2B" d="M55.324,56.569l-10.85,2.046L26.76,48.977l6.43-8.028l14.493,4.819L55.324,56.569z M72,37.728v1.211
		l-11.422,3.608l-11.285,1.611L34.8,39.339l-3.412-1.611h1.957c-0.466-4.318-1.092-7.575-1.385-11.839h-0.035
		c0-0.137-0.155-3-0.173-4.211c-0.244-1.3-0.852-1.806-2.862-3.191c-1.109-0.71-1.921-0.972-2.392-0.954
		c-0.728,0-1.384,0.799-1.544,3.208c3.226,0.537,3.452,4.105,3.452,4.105c0.275,2.534-0.972,6.244-3.847,7.211
		c-5.307,1.771-4.753-8.458-1.753-10.903c0.071-2.947,0.883-5.649,3.692-5.751c1.109,0,2.254,0.466,3.555,1.3
		c0.626,0.364,1.127,0.741,1.575,1.141c-0.049-0.968-0.12-1.957-0.12-2.982c0-2.148,0.346-4.486,2.236-6.133
		c0.99-0.901,2.099-1.371,3.173-1.354c2.822,0.138,4.593,2.583,5.613,5.077c1.198-0.519,2.689-0.777,4.389-0.186
		c4.367,1.504,6.74,9.115,4.903,11.768c-4.318,6.186-15.132-5.303-12.27-9.328c0,0,0.413-0.555,1.158-1.145
		c-0.83-2.219-2.529-4.193-3.794-4.069c-0.47,0.013-1.043,0.186-1.753,0.83c-1.211,1.056-1.509,2.565-1.526,4.539
		c0,1.389,0.177,2.951,0.177,4.491c0,0.816,0.049,1.527,0.066,2.308c0.209,1.385,0.226,2.458,0.191,3.918
		c0.297,4.247,2.01,7.748,2.498,12.15H72z M41.51,14.413l8.201,8.928c-1.473-6.346-6.674-9.865-6.674-9.865L41.51,14.413z
		 M24.505,22.072l-1.455,0.59c0,0-0.745,5.01,0,7.61L24.505,22.072z M17.175,52.203l6.514-3.918l6.798-8.409l-2.134-2.148H13.341
		l-2.982,5.946L17.175,52.203z M24.781,50.849l-11.56,7.868l1.544,1.908h26.572l-0.089-0.399L24.781,50.849z M1,37.728v9.066
		l7.402-3.972l2.237-5.094C10.639,37.728,1,37.728,1,37.728z M51.441,46.101l7.175,10.379L72,59.618v-11.87l-9.638-3.106
		L51.441,46.101z M72,45.147v-4.198l-7.521,2.028L72,45.147z M8.575,45.733L1,49.341v11.285h5.564l8.249-6.758L8.575,45.733z
		 M48.304,60.625h17.333l-8.285-2.01L48.304,60.625z"/>
</g>
</svg>
