<?xml version="1.0" encoding="utf-8"?>
<!-- Generator: Adobe Illustrator 17.0.0, SVG Export Plug-In . SVG Version: 6.00 Build 0)  -->
<!DOCTYPE svg PUBLIC "-//W3C//DTD SVG 1.1//EN" "http://www.w3.org/Graphics/SVG/1.1/DTD/svg11.dtd">
<svg version="1.1" id="Layer_1" xmlns="http://www.w3.org/2000/svg" xmlns:xlink="http://www.w3.org/1999/xlink" x="0px" y="0px"
	 width="73px" height="68px" viewBox="0 0 73 68" enable-background="new 0 0 73 68" xml:space="preserve">
<path fill="#4D8C2B" d="M37.605,1.552c-0.091-0.736-1.299-0.736-1.389,0C33.186,25.921,17.71,30.943,17.71,47.881
	c0,10.463,8.789,18.948,19.198,18.948c10.413,0,19.203-8.485,19.203-18.948C56.111,30.943,40.632,25.921,37.605,1.552L37.605,1.552z
	 M34.682,28.489c-0.205,0.753-0.422,1.527-0.646,2.324c-1.377,4.885-2.937,10.419-2.937,16.825c0,3.465-2.049,4.701-3.964,4.701
	c-2.187,0-3.964-1.794-3.964-3.998c0-7.567,3.643-12.512,6.861-16.871c1.005-1.366,1.955-2.655,2.729-3.945
	c0.355-0.585,1.305-0.562,1.737,0.021C34.702,27.823,34.769,28.167,34.682,28.489L34.682,28.489z"/>
<rect x="17.71" y="1" fill="none" width="38.469" height="66"/>
</svg>
