<?xml version="1.0" encoding="utf-8"?>
<!-- Generator: Adobe Illustrator 17.0.0, SVG Export Plug-In . SVG Version: 6.00 Build 0)  -->
<!DOCTYPE svg PUBLIC "-//W3C//DTD SVG 1.1//EN" "http://www.w3.org/Graphics/SVG/1.1/DTD/svg11.dtd">
<svg version="1.1" id="Layer_1" xmlns="http://www.w3.org/2000/svg" xmlns:xlink="http://www.w3.org/1999/xlink" x="0px" y="0px"
	 width="73px" height="68px" viewBox="0 0 73 68" enable-background="new 0 0 73 68" xml:space="preserve">
<g>
	<g>
		<path fill="#4D8C2B" d="M55.904,2.855c-0.497-0.21-1.319-0.631-2.285-0.887c-0.966-0.279-2.277-0.733-3.61-0.844
			c-1.342-0.145-2.865-0.19-4.539-0.099c-1.623,0.122-3.266,0.478-5.042,0.932c-1.765,0.455-3.385,1.211-5.108,2.044
			c-1.688,0.864-3.22,1.93-4.764,3.095c-1.452,1.211-2.831,2.544-4.096,3.965c-1.177,1.455-2.342,2.953-3.243,4.562
			c-0.932,1.589-1.731,3.22-2.308,4.897c-1.245,3.309-1.731,6.728-1.788,9.761c0,1.543,0.099,2.976,0.29,4.283
			c0.165,1.31,0.486,2.521,0.742,3.488c0.099,0.466,0.245,0.898,0.389,1.288c0.244-0.52,0.512-1.077,0.821-1.677
			c1.487-2.965,3.675-6.827,6.219-10.446c1.276-1.811,2.663-3.533,4.03-5.096c0.711-0.745,1.41-1.467,2.064-2.143
			c0.711-0.645,1.376-1.245,1.987-1.788c0.657-0.5,1.268-0.955,1.799-1.356c0.523-0.432,1.055-0.677,1.467-0.932
			c0.821-0.489,1.288-0.765,1.288-0.765s-0.443,0.31-1.234,0.853c-0.378,0.301-0.887,0.577-1.364,1.043
			c-0.5,0.435-1.055,0.935-1.666,1.467c-0.566,0.6-1.177,1.234-1.822,1.91c-0.588,0.722-1.211,1.478-1.853,2.265
			c-1.211,1.643-2.433,3.431-3.53,5.295c-2.223,3.721-4.042,7.66-5.275,10.659c-0.188,0.466-0.355,0.901-0.52,1.31
			c-4.764,11.037-2.498,23.316-2.365,23.992l2.231-0.443c-0.034-0.153-2.353-12.745,2.621-23.449
			c0.731-0.244,1.509-0.489,2.308-0.81c1.165-0.443,2.41-0.978,3.675-1.577c1.276-0.6,2.521-1.288,3.797-2.021
			c1.276-0.731,2.487-1.563,3.687-2.43c1.165-0.89,2.319-1.788,3.365-2.786c1.043-1.035,2.086-1.99,2.996-3.11
			c1.865-2.132,3.442-4.409,4.741-6.819c0.677-1.143,1.234-2.464,1.776-3.652c0.557-1.188,1.032-2.498,1.501-3.709
			c0.466-1.185,0.909-2.373,1.299-3.553c0.421-1.197,0.787-2.243,1.086-3.107c0.344-0.856,0.568-1.754,0.767-2.288
			c0.176-0.588,0.279-0.898,0.279-0.898S56.439,3.088,55.904,2.855L55.904,2.855z"/>
	</g>
</g>
</svg>
