<?xml version="1.0" encoding="utf-8"?>
<!-- Generator: Adobe Illustrator 17.0.0, SVG Export Plug-In . SVG Version: 6.00 Build 0)  -->
<!DOCTYPE svg PUBLIC "-//W3C//DTD SVG 1.1//EN" "http://www.w3.org/Graphics/SVG/1.1/DTD/svg11.dtd">
<svg version="1.1" id="Layer_1" xmlns="http://www.w3.org/2000/svg" xmlns:xlink="http://www.w3.org/1999/xlink" x="0px" y="0px"
	 width="315px" height="180px" viewBox="0 0 315 180" enable-background="new 0 0 315 180" xml:space="preserve">
<g>
	<path fill="#9E5E70" d="M157.68,116.504c0,0-0.369-5.267-1.753-16.113c-0.271,0.085-0.548,0.139-0.829,0.143
		c-0.486,4.733-1.279,12.877-1.377,16.529c-0.044,0.386-2.426-2.378-6.995-3.848c-0.263,0.719-0.576,1.434-0.942,2.129
		c2.989,2.077,6.385,4.967,7.195,7.819c0,0-0.045,17.614-1.868,26.021c0,0,6.305-1.692,10.205,0.208
		c-2.334-3.803-2.955-26.245-2.955-26.245c0.853-3.05,3.084-5.494,5.483-7.343c-0.503-0.905-0.906-1.847-1.229-2.79
		C160.761,113.76,158.981,114.86,157.68,116.504z"/>
	<path fill="#C0F159" d="M155.253,58.923c0,0-7.54,6.32-7.54,14.113c0,0.011-0.469,0.021-0.469,0.031
		C147.262,66.205,153,60.489,154,59.199v27.677c1,0.178,0.781,0.275,0.781,0.275s7.775-6.318,7.775-14.114
		C162.557,65.244,155.253,58.923,155.253,58.923z"/>
	<path fill="#C0F159" d="M152.029,32.768c0,0.019,0.232,0.038,0.232,0.057c0,2.848,2.873,5.158,2.873,5.158s2.814-2.31,2.814-5.158
		c0-2.849-3.197-5.158-3.197-5.158S155,27.771,154,27.955v9.648C154,36.907,152.059,35.01,152.029,32.768z"/>
	<path fill="#C0F159" d="M135.851,35.741c0.738,2.752,3.997,4.269,3.997,4.269s1.582-2.257,1.479-4.667
		c0.055,2.38-1.479,4.583-1.479,4.583s-3.259-1.522-3.997-4.288c-0.092-0.343-0.14-0.689-0.153-1.032
		C135.705,34.983,135.75,35.364,135.851,35.741z"/>
	<path fill="#C0F159" d="M120.529,42.867c1.423,2.466,4.963,3.088,4.963,3.088s0.489-1.343,0.494-2.954
		c-0.018,1.586-0.494,2.896-0.494,2.896s-3.54-0.624-4.963-3.102c-0.525-0.913-0.689-1.949-0.687-2.894
		C119.831,40.866,119.988,41.932,120.529,42.867z"/>
	<path fill="#C0F159" d="M107.571,53.716c2.014,2.014,5.595,1.699,5.595,1.699s0.019-0.227,0.018-0.597
		c0.001,0.36-0.018,0.58-0.018,0.58s-3.581,0.316-5.595-1.705c-1.505-1.513-1.709-3.903-1.717-5.015
		C105.856,49.763,106.044,52.188,107.571,53.716z"/>
	<path fill="#C0F159" d="M100.618,62.792c2.335,1.356,3.018,4.609,3.083,4.953c0.001,0,0.007-0.002,0.007-0.002
		s-0.623-3.541-3.09-4.967c-2.467-1.422-5.842-0.192-5.842-0.192s0.002,0.012,0.003,0.016
		C94.811,62.587,98.163,61.37,100.618,62.792z"/>
	<path fill="#C0F159" d="M93.492,78.099c-2.749-0.736-5.694,1.328-5.694,1.328s0.014,0.028,0.033,0.067
		c0.329-0.222,3.081-2.006,5.661-1.311c2.516,0.677,3.997,3.464,4.232,3.938c0.023-0.016,0.037-0.025,0.037-0.025
		S96.243,78.836,93.492,78.099z"/>
	<path fill="#C0F159" d="M90.575,94.901c2.561,0,4.68,2.23,5.083,2.683c0.046-0.051,0.075-0.085,0.075-0.085
		s-2.31-2.754-5.158-2.754c-2.847,0-5.157,2.754-5.157,2.754s0.029,0.034,0.075,0.085C85.895,97.132,88.016,94.901,90.575,94.901z"
		/>
	<path fill="#C0F159" d="M92.065,111.578c-2.751,0.735-4.267,3.995-4.267,3.995s0.037,0.025,0.095,0.063
		c0.364-0.697,1.813-3.192,4.173-3.825c2.483-0.668,5.113,0.948,5.606,1.272c0.058-0.109,0.09-0.177,0.09-0.177
		S94.818,110.841,92.065,111.578z"/>
	<path fill="#C0F159" d="M218.434,111.578c-2.748-0.737-5.691,1.329-5.691,1.329s1.517,3.256,4.268,3.994
		c2.75,0.738,5.695-1.326,5.695-1.326S221.188,112.315,218.434,111.578z"/>
	<path fill="#C0F159" d="M214.769,97.502c0,0,2.308,2.752,5.159,2.752c2.848,0.002,5.157-2.755,5.157-2.755
		s-2.309-2.753-5.159-2.753C217.077,94.744,214.769,97.502,214.769,97.502z"/>
	<path fill="#C0F159" d="M212.743,82.098c0,0,2.942,2.061,5.693,1.324c2.75-0.736,4.27-3.997,4.27-3.997s-2.943-2.063-5.697-1.325
		C214.259,78.836,212.743,82.098,212.743,82.098z"/>
	<path fill="#C0F159" d="M212.64,67.548c2.465-1.422,3.09-4.966,3.09-4.966s-3.378-1.229-5.846,0.195
		c-2.468,1.424-3.087,4.965-3.087,4.965S210.173,68.973,212.64,67.548z"/>
	<path fill="#C0F159" d="M202.932,53.716c2.015-2.012,1.699-5.597,1.699-5.597s-3.581-0.314-5.597,1.701
		c-2.014,2.013-1.694,5.595-1.694,5.595S200.917,55.73,202.932,53.716z"/>
	<path fill="#C0F159" d="M189.975,42.867c1.426-2.466,0.193-5.845,0.193-5.845s-3.542,0.622-4.964,3.091
		c-1.426,2.465-0.191,5.843-0.191,5.843S188.551,45.333,189.975,42.867z"/>
	<path fill="#C0F159" d="M174.652,35.741c0.739-2.751-1.326-5.697-1.326-5.697s-3.259,1.52-3.998,4.271
		c-0.736,2.753,1.33,5.695,1.33,5.695S173.914,38.494,174.652,35.741z"/>
	<path fill="#C0F159" d="M145.334,59.074c0.122,0.63,0.191,1.264,0.21,1.889C145.525,60.338,145.456,59.705,145.334,59.074z"/>
	<path fill="#C0F159" d="M133.855,58.983c-0.079-0.506-0.135-1.012-0.149-1.513C133.721,57.971,133.776,58.477,133.855,58.983z"/>
	<path fill="#C0F159" d="M119.516,76.113c-5.356-2.01-11.644,1.543-11.644,1.543s0.01,0.028,0.025,0.069
		c0.266-0.149,6.379-3.511,11.618-1.536c4.995,1.882,7.417,7.953,7.722,8.766c0.012-0.007,0.035-0.02,0.035-0.02
		S124.873,78.123,119.516,76.113z"/>
	<path fill="#C0F159" d="M115.301,107.463c-5.209,2.368-7.144,9.325-7.144,9.325s0.027,0.013,0.067,0.031
		c0.367-1.173,2.399-7.008,7.076-9.143c4.956-2.261,11.08,0.462,11.664,0.732c0.034-0.112,0.058-0.19,0.058-0.19
		S120.51,105.098,115.301,107.463z"/>
	<path fill="#C0F159" d="M194.878,107.277c-5.358-2.01-11.645,1.541-11.645,1.541s2.398,6.813,7.755,8.823
		c5.357,2.009,11.644-1.542,11.644-1.542S200.234,109.288,194.878,107.277z"/>
	<path fill="#C0F159" d="M195.202,86.29c5.208-2.367,7.145-9.325,7.145-9.325s-6.512-3.12-11.722-0.754
		c-5.21,2.366-7.143,9.323-7.143,9.323S189.994,88.657,195.202,86.29z"/>
	<path fill="#C0F159" d="M167.193,68.895c0,0,6.811-2.396,8.821-7.754c2.011-5.355-1.541-11.643-1.541-11.643
		s-6.811,2.398-8.822,7.754C163.642,62.609,167.193,68.895,167.193,68.895z"/>
	<path fill="#C0F159" d="M143.851,74.387c-5.514-5.511-15.313-4.648-15.313-4.648s-0.054,0.615-0.049,1.623
		c-0.003-0.979,0.049-1.575,0.049-1.575s9.799-0.868,15.313,4.668c4.127,4.147,4.681,10.708,4.698,13.741
		C148.546,85.237,148.038,78.577,143.851,74.387z"/>
	<path fill="#C0F159" d="M131.411,88.734c-7.794,0-14.113,7.54-14.113,7.54s0.025,0.03,0.07,0.082
		c0.703-0.81,6.722-7.491,14.043-7.491c7.322,0,13.342,6.681,14.045,7.491c0.045-0.052,0.07-0.082,0.07-0.082
		S139.206,88.734,131.411,88.734z"/>
	<path fill="#C0F159" d="M148.073,103.222c0,0,0.047,0.546,0.049,1.447c0.006-1.019-0.049-1.641-0.049-1.641
		s-9.799-0.864-15.311,4.649c-4.25,4.249-4.709,11.043-4.697,13.934c0.02-3.041,0.577-9.582,4.697-13.72
		C138.274,102.354,148.073,103.222,148.073,103.222z"/>
	<path fill="#C0F159" d="M161.401,103.454c0,0-0.419,4.794,1.213,9.56c0.323,0.944,0.727,1.886,1.229,2.79
		c0.589,1.059,1.313,2.066,2.207,2.96c5.513,5.512,15.311,4.65,15.311,4.65s0.862-9.8-4.647-15.311
		C171.202,102.59,161.401,103.454,161.401,103.454z"/>
	<path fill="#C0F159" d="M178.488,89.338c-7.794,0-14.113,7.54-14.113,7.54s6.319,7.539,14.114,7.539
		c7.795,0,14.114-7.539,14.114-7.539S186.284,89.338,178.488,89.338z"/>
	<path fill="#C0F159" d="M161.826,90.126c0,0,9.802,0.862,15.313-4.651c5.513-5.51,4.648-15.31,4.648-15.31s-9.8-0.863-15.311,4.648
		C160.964,80.325,161.826,90.126,161.826,90.126z"/>
	<path fill="#C0F159" d="M154.781,40.292c-0.104,0-0.781,0.011-0.781,0.016v13.352c-3-0.164-6-3.089-6-6.69c0,0.009,0,0.018,0,0.026
		c0,3.702,3.277,6.702,6.978,6.702c3.699,0,6.604-3,6.604-6.702C161.582,43.293,158.482,40.292,154.781,40.292z"/>
	<path fill="#C0F159" d="M126.13,58.948c0.364,0.848,0.553,1.755,0.553,2.663C126.684,60.703,126.496,59.796,126.13,58.948z"/>
	<path fill="#C0F159" d="M113.276,61.61c0-0.9,0.185-1.799,0.543-2.641C113.459,59.812,113.275,60.71,113.276,61.61z"/>
	<path fill="#C0F159" d="M105.37,90.176c-3.702,0-6.703,3.001-6.703,6.702c0,0.028,0.004,0.056,0.004,0.084
		c0.046-3.681,3.025-6.648,6.699-6.648c3.674-0.003,6.652,2.968,6.698,6.648c0-0.028,0.004-0.055,0.004-0.084
		C112.072,93.176,109.072,90.174,105.37,90.176z"/>
	<circle fill="#C0F159" cx="205.133" cy="96.878" r="6.702"/>
	<circle fill="#C0F159" cx="190.524" cy="61.605" r="6.703"/>
	<path fill="#C0F159" d="M157.095,99.695c1.123-1.121,1.123-2.939,0.001-4.061c-1.121-1.122-2.939-1.122-4.06,0.001
		c-0.582,0.582-0.855,1.352-0.833,2.115c0.021-0.71-0.178-1.413,0.361-1.954c0.529-0.532,1.436-0.804,1.436-0.834v5.563
		c0,0.002,0.574,0.009,0.627,0.009c0.281-0.003,0.794-0.057,1.064-0.143C156.117,100.257,156.757,100.033,157.095,99.695z"/>
	<path fill="#A1D982" d="M147.244,73.068c0,0.01-0.238,0.021-0.238,0.031c0,6.879,5.994,12.608,6.994,13.9v-0.123V59.199
		C153,60.489,147.262,66.205,147.244,73.068z"/>
	<path fill="#A1D982" d="M152.025,32.71c0,0.02-0.232,0.038-0.232,0.058c0.029,2.242,2.207,4.139,2.207,4.835v-9.648v-0.136
		C154,28.521,152.025,30.442,152.025,32.71z"/>
	<path fill="#A1D982" d="M139.848,39.927c0,0,1.534-2.203,1.479-4.583c-0.009-0.377-0.054-0.758-0.154-1.136
		c-0.736-2.764-3.994-4.288-3.994-4.288s-1.584,2.267-1.481,4.686c0.014,0.343,0.062,0.689,0.153,1.032
		C136.589,38.404,139.848,39.927,139.848,39.927z"/>
	<path fill="#A1D982" d="M125.492,45.898c0,0,0.476-1.31,0.494-2.896c0.011-0.966-0.146-2.035-0.685-2.972
		c-1.425-2.478-4.965-3.104-4.965-3.104s-0.49,1.354-0.493,2.976c-0.002,0.946,0.161,1.982,0.687,2.894
		C121.952,45.274,125.492,45.898,125.492,45.898z"/>
	<path fill="#A1D982" d="M113.166,55.398c0,0,0.019-0.22,0.018-0.58c-0.004-1.099-0.198-3.516-1.717-5.04
		c-2.013-2.023-5.595-1.706-5.595-1.706s-0.02,0.23-0.018,0.606c0.008,1.111,0.212,3.501,1.717,5.015
		C109.585,55.715,113.166,55.398,113.166,55.398z"/>
	<path fill="#A1D982" d="M103.708,67.778c0,0-0.003-0.015-0.007-0.034c-0.065-0.344-0.748-3.396-3.083-4.752
		C98.163,61.571,94.811,63,94.779,63h-0.003c0,0,0.621,3.356,3.086,4.786C100.33,69.217,103.708,67.778,103.708,67.778z"/>
	<path fill="#A1D982" d="M93.492,78.183c-2.58-0.695-5.332,1.088-5.661,1.311c-0.021,0.015-0.033,0.023-0.033,0.023
		s1.517,3.273,4.269,4.013c2.751,0.74,5.694-1.332,5.694-1.332s-0.015-0.032-0.037-0.076C97.489,81.647,96.008,78.86,93.492,78.183z
		"/>
	<path fill="#A1D982" d="M90.575,100.436c2.848,0,5.158-2.767,5.158-2.767s-0.029-0.035-0.075-0.085
		c-0.403-0.452-2.522-2.683-5.083-2.683c-2.56,0-4.68,2.231-5.082,2.683c-0.046,0.051-0.075,0.085-0.075,0.085
		S87.727,100.436,90.575,100.436z"/>
	<path fill="#A1D982" d="M92.065,111.81c-2.36,0.633-3.809,3.128-4.173,3.825c-0.061,0.115-0.095,0.187-0.095,0.187
		s2.943,2.074,5.695,1.332c2.75-0.737,4.269-4.012,4.269-4.012s-0.036-0.024-0.09-0.06C97.179,112.758,94.549,111.142,92.065,111.81
		z"/>
	<path fill="#A1D982" d="M144.663,56.916c-2.365-5.231-9.322-7.173-9.322-7.173s-1.756,3.679-1.635,7.727
		c0.015,0.501,0.07,1.007,0.149,1.513c0.135,0.857,0.358,1.711,0.73,2.533c2.368,5.231,9.324,7.174,9.324,7.174
		s1.755-3.68,1.634-7.727c-0.018-0.625-0.088-1.258-0.21-1.889C145.193,58.344,144.98,57.618,144.663,56.916z"/>
	<path fill="#A1D982" d="M119.516,76.189c-5.239-1.975-11.353,1.387-11.618,1.536c-0.006,0.003-0.025,0.014-0.025,0.014
		s2.398,6.84,7.755,8.859c5.356,2.019,11.645-1.547,11.645-1.547s-0.014-0.037-0.035-0.095
		C126.933,84.142,124.511,78.071,119.516,76.189z"/>
	<path fill="#A1D982" d="M115.301,107.677c-4.677,2.135-6.709,7.97-7.076,9.143c-0.042,0.133-0.067,0.222-0.067,0.222
		s6.511,3.134,11.722,0.757c5.208-2.375,7.144-9.364,7.144-9.364s-0.028-0.013-0.058-0.027
		C126.381,108.139,120.257,105.415,115.301,107.677z"/>
	<path fill="#A1D982" d="M128.538,69.787c0,0-0.052,0.596-0.049,1.575c0.011,3.004,0.542,9.628,4.698,13.804
		c5.513,5.537,15.314,4.669,15.314,4.669s0.054-0.621,0.048-1.638c-0.018-3.033-0.571-9.594-4.698-13.741
		C138.337,68.919,128.538,69.787,128.538,69.787z"/>
	<path fill="#A1D982" d="M131.411,88.866c-7.321,0-13.34,6.681-14.043,7.491c-0.045,0.052-0.07,0.083-0.07,0.083
		s6.319,7.572,14.113,7.572c7.795,0,14.115-7.572,14.115-7.572s-0.025-0.03-0.07-0.083
		C144.753,95.546,138.733,88.866,131.411,88.866z"/>
	<path fill="#A1D982" d="M148.122,104.669c-0.002-0.901-0.049-1.447-0.049-1.447s-9.799-0.867-15.311,4.669
		c-4.12,4.138-4.678,10.679-4.697,13.72c-0.006,1.028,0.049,1.658,0.049,1.658s9.799,0.869,15.312-4.668
		c0.973-0.977,1.743-2.089,2.358-3.256c0.366-0.695,0.68-1.41,0.942-2.129C147.933,109.906,148.125,106.526,148.122,104.669z"/>
	<path fill="#A1D982" d="M154,53.659V40.308v-0.081c-3,0.164-6,3.104-6,6.717c0,0.009,0,0.017,0,0.026
		C148,50.57,151,53.495,154,53.659z"/>
	<path fill="#A1D982" d="M115.239,66.377c2.618,2.629,6.864,2.629,9.48,0.002c1.311-1.317,1.965-3.043,1.963-4.768
		c0-0.908-0.188-1.815-0.553-2.663c-0.326-0.759-0.793-1.471-1.41-2.091c-2.617-2.629-6.862-2.629-9.48,0
		c-0.623,0.626-1.094,1.346-1.42,2.113c-0.358,0.842-0.543,1.74-0.543,2.641C113.274,63.335,113.929,65.061,115.239,66.377z"/>
	<path fill="#A1D982" d="M105.37,90.313c-3.674,0-6.653,2.968-6.699,6.648c0,0.028-0.004,0.056-0.004,0.084
		c0,3.715,3.001,6.73,6.703,6.73c3.702,0,6.702-3.015,6.702-6.73c0-0.028-0.004-0.056-0.004-0.084
		C112.022,93.281,109.044,90.311,105.37,90.313z"/>
	<path fill="#A1D982" d="M152.564,95.796c-0.539,0.541-0.575,1.245-0.597,1.954c-0.023,0.766-0.103,1.54,0.479,2.124
		c0.528,0.531,1.553,0.802,1.553,0.832v-0.182v-5.563C154,94.992,153.094,95.264,152.564,95.796z"/>
</g>
</svg>
