<?xml version="1.0" encoding="utf-8"?>
<!-- Generator: Adobe Illustrator 17.0.0, SVG Export Plug-In . SVG Version: 6.00 Build 0)  -->
<!DOCTYPE svg PUBLIC "-//W3C//DTD SVG 1.1//EN" "http://www.w3.org/Graphics/SVG/1.1/DTD/svg11.dtd">
<svg version="1.1" id="Layer_1" xmlns="http://www.w3.org/2000/svg" xmlns:xlink="http://www.w3.org/1999/xlink" x="0px" y="0px"
	 width="315px" height="180px" viewBox="0 0 315 180" enable-background="new 0 0 315 180" xml:space="preserve">
<g>
	<path fill="#C0F159" d="M149.174,85.756c0,0,13.047-15.504,10.274-31.313c-2.774-15.815-20.318-25.954-20.318-25.954
		s-13.046,15.504-10.273,31.317C131.633,75.62,149.174,85.756,149.174,85.756z"/>
	<path fill="#C0F159" d="M117.688,67.175c-7.17-5.135-17.949-2.363-17.949-2.363s0.847,11.098,8.016,16.232
		c7.171,5.133,17.948,2.361,17.948,2.361S124.855,72.308,117.688,67.175z"/>
	<path fill="#C0F159" d="M196.246,50.138c-5.94,2.465-8.373,10.207-8.373,10.207s7.199,3.749,13.137,1.286
		c5.943-2.464,8.375-10.206,8.375-10.206S202.185,47.674,196.246,50.138z"/>
	<path fill="#C0F159" d="M169.057,37.086c-4.447,8.741,0.397,20.126,0.397,20.126s12.061-2.783,16.507-11.518
		c4.45-8.741-0.396-20.126-0.396-20.126S173.506,28.349,169.057,37.086z"/>
	<path fill="#C0F159" d="M122.186,58.83c0,0,1.815-8.347-2.328-13.698c-4.146-5.35-12.679-5.68-12.679-5.68
		s-1.815,8.348,2.327,13.695C113.65,58.501,122.186,58.83,122.186,58.83z"/>
	<path fill="#9E5E70" d="M151.922,107.97c-4.042-15.413-20.898-21.436-20.898-21.436c24.03,24.576,16.93,65.466,16.93,65.466h14.745
		c-14.745-55,21.3-90.606,21.3-90.606C162.153,66.48,151.922,107.97,151.922,107.97z"/>
</g>
</svg>
