<?xml version="1.0" encoding="utf-8"?>
<!-- Generator: Adobe Illustrator 17.0.0, SVG Export Plug-In . SVG Version: 6.00 Build 0)  -->
<!DOCTYPE svg PUBLIC "-//W3C//DTD SVG 1.1//EN" "http://www.w3.org/Graphics/SVG/1.1/DTD/svg11.dtd">
<svg version="1.1" id="Layer_1" xmlns="http://www.w3.org/2000/svg" xmlns:xlink="http://www.w3.org/1999/xlink" x="0px" y="0px"
	 width="315px" height="180px" viewBox="0 0 315 180" enable-background="new 0 0 315 180" xml:space="preserve">
<g>
	<path fill="#A1D982" d="M101.518,106.587c9.689-0.11,11.433,4.895,11.433,4.895c0.038-0.639,0.096-1.257,0.165-1.865
		c-1.48-9.364-7.455-12.18-7.455-12.18c5.635,0.442,7.752,4.39,8.516,6.506c0.263-0.905-0.176-1.747,0.824-2.561V62.713
		c-17,0-29.314,13.15-29.314,29.371c0,15.259,11.665,27.799,26.55,29.232c0.031-1.857,0.048-2.996,0.048-2.996
		C110.533,112.158,101.518,106.587,101.518,106.587z"/>
	<path fill="#C0F159" d="M118.572,66.803c0-1.301,0.012-2.586,0.125-3.857c-1.193-0.148-2.697-0.233-3.697-0.233v38.667
		c3-8.768,9.584-12.34,9.584-12.34c-8.026,15.682-6.899,22.606-6.899,22.606c5.024-6.34,16.208-5.777,16.208-5.777
		s-12.89,4.447-15.402,13.437c0,0,0.025,0.728,0.07,1.94c10.223-1.197,18.841-7.638,23.086-16.565
		C127.943,97.593,118.572,83.298,118.572,66.803z"/>
	<path fill="#9E5E70" d="M133.907,105.87c0,0-11.171-0.563-16.193,5.777c0,0-1.1-6.924,6.927-22.606c0,0-6.117,3.572-9.527,12.34
		c-0.316,0.814-0.618,1.656-0.881,2.561c-0.764-2.116-2.938-6.064-8.572-6.506c0,0,5.975,2.816,7.455,12.18
		c-0.069,0.608-0.127,1.227-0.165,1.865c0,0-1.743-5.005-11.433-4.895c0,0,9.029,5.571,10.78,11.733c0,0-0.003,1.139-0.034,2.996
		c-0.102,6.211-0.509,20.554-2.128,28.017c0,0,7.272-1.952,11.771,0.241c-2.244-3.657-3.114-22.243-3.342-28.327
		c-0.045-1.213-0.065-1.94-0.065-1.94C121.012,110.317,133.907,105.87,133.907,105.87z"/>
	<path fill="#A1D982" d="M191.252,114.732c7.557-0.086,9.016,4.922,9.072,4.447c1.557-2.293-0.649-15.76-0.649-15.76
		c0.711,1.522,1.325,2.927,1.325,4.235V80.509c0,0,0.234,0.006,0.138,0.007c-3.77,11.098-11.765,20.136-22.306,25.003
		c0.994,10.936,9.776,19.651,20.696,20.703c0.023-1.448,0.079-2.337,0.079-2.337C198.242,119.076,191.252,114.732,191.252,114.732z"
		/>
	<path fill="#C0F159" d="M224.339,103.419c0-12.653-10.339-22.911-23.339-22.911v27.146c3,7.116,2.458,11.025,2.458,11.025
		c3.916-4.946,12.847-4.507,12.847-4.507s-9.954,3.468-11.913,10.481c0,0-0.146,0.567-0.11,1.514
		C215.665,124.835,224.339,115.161,224.339,103.419z"/>
	<path fill="#9E5E70" d="M216.519,114.173c0,0-8.716-0.439-12.632,4.507c0,0,0.552-3.909-2.029-11.025
		c-0.475-1.309-1.043-2.713-1.754-4.235c0,0,1.777,13.467,0.221,15.76c-0.057,0.475-1.516-4.533-9.072-4.447
		c0,0,7.044,4.344,8.409,9.152c0,0-0.003,0.889-0.026,2.337c-0.079,4.846-0.396,16.032-1.66,21.854c0,0,5.672-1.521,9.182,0.188
		c-1.751-2.852-2.43-17.35-2.607-22.096c-0.035-0.946-0.051-1.514-0.051-1.514C206.458,117.641,216.519,114.173,216.519,114.173z"/>
	<path fill="#A1D982" d="M142.84,86.154c14.346-5.216,17.598,10.805,17.598,10.805c0.385-1.19,0.563-2.498,0.563-3.874V90.71
		c-1-10.673-7.576-24.107-7.576-24.107c3.342,2.911,5.576,6.296,7.576,9.733V24.174c-23,0-40.396,17.037-42.347,38.772
		c-0.113,1.271-0.132,2.556-0.132,3.857c0,16.495,9.399,30.79,23.103,37.878c4.586,2.372,9.665,3.942,15.033,4.51
		C157.358,83.959,142.84,86.154,142.84,86.154z"/>
	<path fill="#C0F159" d="M161,90.71v2.375C161,92.314,161,91.521,161,90.71z"/>
	<path fill="#C0F159" d="M201.566,80.516c1.462-4.305,2.166-8.914,2.166-13.713c0-23.544-19.732-42.629-42.732-42.629v52.162
		c5,10.258,4.932,20.983,4.932,20.983c5.871-13.772,14.764-12.059,14.764-12.059c-7.355,3.78-10.104,12.913-10.597,23.231
		c3.115-0.663,6.112-1.67,8.935-2.973C189.574,100.652,197.797,91.614,201.566,80.516z"/>
	<path fill="#9E5E70" d="M180.745,85.26c0,0-8.842-1.713-14.713,12.059c0,0,0.509-10.725-4.831-20.983
		c-1.789-3.437-4.234-6.822-7.576-9.733c0,0,7.049,13.434,7.576,24.107c0.04,0.811,0.041,1.604,0,2.375
		c-0.073,1.376-0.278,2.684-0.663,3.874c0,0-3.353-16.021-17.698-10.805c0,0,14.531-2.196,13.83,23.037
		c-0.263,9.455-2.66,22.753-8.768,41.473c0,0,16.177-5.267,28.473,0.882c0,0-7.178-23.627-6.252-43.055
		C170.615,98.174,173.391,89.04,180.745,85.26z"/>
</g>
</svg>
