<?xml version="1.0" encoding="utf-8"?>
<!-- Generator: Adobe Illustrator 17.0.0, SVG Export Plug-In . SVG Version: 6.00 Build 0)  -->
<!DOCTYPE svg PUBLIC "-//W3C//DTD SVG 1.1//EN" "http://www.w3.org/Graphics/SVG/1.1/DTD/svg11.dtd">
<svg version="1.1" id="Layer_1" xmlns="http://www.w3.org/2000/svg" xmlns:xlink="http://www.w3.org/1999/xlink" x="0px" y="0px"
	 width="315px" height="180px" viewBox="0 0 315 180" enable-background="new 0 0 315 180" xml:space="preserve">
<g>
	<path fill="none" d="M109.168,90.446c0,26.729,21.395,48.396,48.395,48.396c26,0,48.395-21.667,48.395-48.396
		c0-26.728-22.395-48.395-48.395-48.395C130.563,42.051,109.168,63.718,109.168,90.446z M154.827,60.467
		c1.236,0,2.237,1.001,2.237,2.237c0,1.236-1.001,2.237-2.237,2.237c-1.235,0-2.237-1.001-2.237-2.237
		C152.59,61.468,153.592,60.467,154.827,60.467z M146.304,61.31c2.18,0,3.948,1.767,3.948,3.948c0,2.18-1.768,3.947-3.948,3.947
		c-2.18,0-3.948-1.767-3.948-3.947C142.356,63.078,144.124,61.31,146.304,61.31z M138.624,68.142c1.235,0,2.237,1.001,2.237,2.237
		s-1.001,2.237-2.237,2.237c-1.236,0-2.237-1.002-2.237-2.237S137.389,68.142,138.624,68.142z M166.518,62.716
		c4.333,9.877-0.157,21.394-10.028,25.734c3.625,10.64,4.405,21.888,4.405,21.888c1.449-2.37,3.254-4.451,5.118-6.226
		c0.662-3.525,2.564-10.297,7.729-13.985c7.193-5.133,17.991-2.338,17.991-2.338s-0.867,11.119-8.061,16.253
		c-5.441,3.884-12.944,3.228-16.274,2.679c-5.27,9.471-6.502,21.278-6.502,21.278h-3.109c0.296-5.75-2.668-11.075-5.566-14.852
		c-2.495,0.606-6.015,0.983-9.077-0.458c-5.445-2.563-7.38-9.91-7.38-9.91s6.894-3.188,12.34-0.625
		c5.446,2.564,7.381,9.911,7.381,9.911s-0.377,0.171-1.005,0.4c1.963,1.889,3.307,3.579,3.307,3.579
		c1.635-8.175-1.594-20.499-3.538-26.78c-9.329,2.816-19.502-1.701-23.516-10.849L166.518,62.716z"/>
	<path fill="#A1D982" d="M108.605,90.446c0-26.728,21.395-48.395,48.395-48.395V24.522c-36,0-65.924,29.515-65.924,65.924
		c0,36.409,29.924,65.925,65.924,65.925v-17.529C130,138.842,108.605,117.174,108.605,90.446z"/>
	<path fill="#C0F159" d="M157,24.522v17.529c26,0,48.395,21.667,48.395,48.395c0,26.729-22.395,48.396-48.395,48.396v17.529
		c37,0,65.925-29.517,65.925-65.925C222.925,54.037,194,24.522,157,24.522z"/>
	<path fill="#C0F159" d="M176.15,97.201c-3.735,2.118-6.583,5.622-8.752,9.521c3.33,0.549,10.833,1.205,16.274-2.679
		c7.194-5.134,8.061-16.253,8.061-16.253s-10.798-2.795-17.991,2.338c-5.165,3.688-7.067,10.459-7.729,13.985
		C171.809,98.592,178.171,96.055,176.15,97.201z"/>
	<path fill="#C0F159" d="M146.983,107.543c2.634,0.688,5.413,2.917,7.495,4.922c0.628-0.229,1.005-0.4,1.005-0.4
		s-1.936-7.346-7.381-9.911c-5.447-2.563-12.34,0.625-12.34,0.625s1.936,7.346,7.38,9.91c3.062,1.441,6.582,1.064,9.077,0.458
		C149.573,109.7,146.983,107.543,146.983,107.543z"/>
	<path fill="#9E5E70" d="M154.248,89.264c1.943,6.281,5.172,18.605,3.538,26.78c0,0-1.344-1.689-3.307-3.579
		c-2.082-2.005-4.861-4.235-7.495-4.922c0,0,2.59,2.157,5.236,5.605c2.898,3.776,5.863,9.102,5.566,14.852h3.109
		c0,0,1.233-11.808,6.502-21.278c2.169-3.899,5.018-7.403,8.752-9.521c2.021-1.146-4.341,1.391-10.137,6.911
		c-1.863,1.775-3.669,3.856-5.118,6.226c0,0-0.78-11.248-4.405-21.888c-0.005,0.002-0.011,0.006-0.016,0.008
		C155.74,88.78,154.996,89.038,154.248,89.264z"/>
	<path fill="#C0F159" d="M154.248,89.264c0.748-0.226,1.492-0.484,2.226-0.806c0.005-0.002,0.011-0.006,0.016-0.008
		c9.871-4.341,14.36-15.857,10.028-25.734l-35.786,15.699C134.746,87.563,144.919,92.08,154.248,89.264z"/>
	<circle fill="#9E5E70" cx="146.304" cy="65.258" r="3.947"/>
	<circle fill="#9E5E70" cx="154.827" cy="62.704" r="2.237"/>
	<circle fill="#9E5E70" cx="138.624" cy="70.379" r="2.237"/>
</g>
</svg>
