<?xml version="1.0" encoding="utf-8"?>
<!-- Generator: Adobe Illustrator 17.0.0, SVG Export Plug-In . SVG Version: 6.00 Build 0)  -->
<!DOCTYPE svg PUBLIC "-//W3C//DTD SVG 1.1//EN" "http://www.w3.org/Graphics/SVG/1.1/DTD/svg11.dtd">
<svg version="1.1" id="Layer_1" xmlns="http://www.w3.org/2000/svg" xmlns:xlink="http://www.w3.org/1999/xlink" x="0px" y="0px"
	 width="315px" height="180px" viewBox="0 0 315 180" enable-background="new 0 0 315 180" xml:space="preserve">
<path fill="none" d="M166.197,85.391c-0.112,0.067-0.224,0.137-0.339,0.199c-4.639,5.918-5.602,13.045-5.602,13.045
	c2.444-2.335,6.226-4.891,6.226-4.891c0.213-1.105,0.658-2.035,1.229-2.84c-0.971-1.4-1.543-3.098-1.543-4.931
	C166.168,85.776,166.185,85.584,166.197,85.391z"/>
<path fill="none" d="M144.358,90.407c-0.446-1.175-1.47-2.349-2.589-3.368c-0.323,0.848-0.77,1.633-1.326,2.33
	C142.754,89.787,144.358,90.407,144.358,90.407z"/>
<path fill="none" d="M142.341,83.963c0,0.776-0.111,1.524-0.303,2.24c8.006,4.813,10.866,11.358,10.866,11.358
	c-0.267-4.854-4.528-11.28-6.473-13.979c-1.558-0.052-3.01-0.514-4.254-1.284C142.282,82.838,142.341,83.394,142.341,83.963z"/>
<path fill="none" d="M137.072,95.993c6.612-2.89,14.29,3.968,14.29,3.968c-1.532-5.301-7.419-7.991-12.16-9.323
	c-1.1,0.913-2.432,1.555-3.892,1.834C136.148,93.478,136.756,94.678,137.072,95.993z"/>
<path fill="none" d="M151.474,88.58c-0.427-1.933-1.152-3.763-2.002-5.435c-0.663,0.222-1.359,0.364-2.083,0.419
	C150.11,85.744,151.474,88.58,151.474,88.58z"/>
<path fill="none" d="M169.039,93.071c0.188-0.077,0.378-0.13,0.566-0.198c-0.128-0.097-0.256-0.194-0.378-0.298
	C169.101,92.88,169.039,93.071,169.039,93.071z"/>
<path fill="none" d="M161.034,86.961c0.087-0.13,0.177-0.25,0.265-0.377c-0.089-0.005-0.179-0.006-0.267-0.014
	C161.03,86.813,161.034,86.961,161.034,86.961z"/>
<path fill="none" d="M153.467,80.37c-0.412,0.511-0.883,0.97-1.399,1.376c0.007,0.768-0.038,1.214-0.038,1.214
	c3.112,4.113,3.89,13.445,3.89,13.445c0.112-2.23,2.335-9.219,2.335-9.219c0.064-0.402,0.164-0.808,0.278-1.212
	C156.095,84.984,154.212,82.922,153.467,80.37z"/>
<path fill="none" d="M107.167,87.64c0,25.322,19.208,46.089,44.188,48.205c0.242-2.016,0.648-6.465,1.007-15.519
	c0.887-22.302-11.676-23.934-15.204-23.955c0.103,0.534,0.161,1.085,0.161,1.65c0,4.787-3.881,8.669-8.668,8.669
	c-4.788,0-8.669-3.881-8.669-8.669c0-1.2,0.244-2.342,0.685-3.381c-0.016,0-0.031,0.002-0.047,0.002
	c-4.788,0-8.669-3.883-8.669-8.669c0-4.227,3.027-7.743,7.03-8.51c-1.254-1.503-2.01-3.437-2.01-5.547
	c0-4.788,3.881-8.668,8.669-8.668c1.28,0,2.491,0.285,3.585,0.782c0.739-3.373,3.439-6.007,6.848-6.65
	c0.25-4.563,4.018-8.188,8.643-8.188c3.572,0,6.637,2.161,7.964,5.246c0.248,0.057,0.493,0.121,0.733,0.199
	c0.981-3.709,4.352-6.448,8.371-6.448c4.58,0,8.319,3.554,8.637,8.052c0.134-0.006,0.266-0.02,0.4-0.02
	c2.854,0,5.377,1.385,6.956,3.512c1.567-1.549,3.719-2.508,6.097-2.508c4.787,0,8.668,3.881,8.668,8.668
	c0,1.847-0.581,3.555-1.565,4.961c3.261,1.245,5.581,4.394,5.581,8.091c0,1.575-0.427,3.048-1.161,4.321
	c1.344,1.527,2.166,3.525,2.166,5.719c0,4.787-3.882,8.668-8.669,8.668c-0.259,0-0.514-0.017-0.768-0.038
	c-1.107,3.514-4.39,6.063-8.27,6.063c-4.446,0-8.104-3.349-8.604-7.66c-17.34,7.401-11.815,33.042-10.045,39.708
	c25.052-2.695,42.748-23.19,42.748-48.085c0-26.729-20.394-48.395-48.394-48.395C128.562,39.245,107.167,60.911,107.167,87.64z"/>
<path fill="none" d="M138.189,76.405c-0.009,0.052-0.014,0.105-0.023,0.157c0.018,0.011,0.035,0.021,0.053,0.032
	C138.206,76.531,138.2,76.467,138.189,76.405z"/>
<path fill="#9E5E70" d="M171.253,96.017c-0.038-0.332-0.063-0.667-0.063-1.009c0-0.387,0.034-0.766,0.083-1.139
	c-0.595-0.269-1.152-0.605-1.667-0.996c-0.188,0.068-0.379,0.121-0.566,0.198c0,0,0.061-0.19,0.188-0.496
	c-0.575-0.489-1.085-1.05-1.517-1.672c-0.57,0.805-1.016,1.735-1.229,2.84c0,0-3.781,2.556-6.226,4.891
	c0,0,0.963-7.127,5.602-13.045c-1.215,0.648-2.601,1.018-4.074,1.018c-0.164,0-0.323-0.016-0.485-0.024
	c-0.088,0.127-0.178,0.247-0.265,0.377c0,0-0.004-0.148-0.002-0.391c-0.877-0.075-1.716-0.281-2.499-0.598
	c-0.114,0.405-0.214,0.81-0.278,1.212c0,0-2.223,6.989-2.335,9.219c0,0-0.778-9.331-3.89-13.445c0,0,0.045-0.446,0.038-1.214
	c-0.771,0.605-1.645,1.082-2.595,1.4c0.85,1.672,1.575,3.503,2.002,5.435c0,0-1.364-2.836-4.085-5.017
	c-0.22,0.017-0.44,0.034-0.665,0.034c-0.099,0-0.195-0.011-0.293-0.015c1.945,2.698,6.206,9.124,6.473,13.979
	c0,0-2.86-6.544-10.866-11.358c-0.076,0.285-0.165,0.563-0.269,0.835c1.119,1.02,2.143,2.193,2.589,3.368
	c0,0-1.604-0.62-3.915-1.038c-0.371,0.463-0.784,0.89-1.241,1.269c4.741,1.332,10.629,4.022,12.16,9.323
	c0,0-7.678-6.858-14.29-3.968c0.03,0.126,0.062,0.25,0.087,0.377c3.528,0.021,16.09,1.652,15.204,23.955
	c-0.359,9.054-0.765,13.503-1.007,15.519c1.387,0.117,2.787,0.191,4.207,0.191c1.92,0,3.801-0.111,5.646-0.31
	C159.437,129.059,153.913,103.418,171.253,96.017z"/>
<path fill="#C0F159" d="M135.31,92.472c1.46-0.279,2.792-0.921,3.892-1.834c0.457-0.379,0.87-0.806,1.241-1.269
	c0.557-0.697,1.003-1.482,1.326-2.33c0.104-0.272,0.193-0.551,0.269-0.835c0.191-0.716,0.303-1.464,0.303-2.24
	c0-0.57-0.059-1.126-0.164-1.665c1.245,0.77,2.696,1.232,4.254,1.284c0.098,0.003,0.194,0.015,0.293,0.015
	c0.225,0,0.445-0.017,0.665-0.034c0.723-0.055,1.42-0.197,2.083-0.419c0.95-0.317,1.824-0.794,2.595-1.4
	c0.517-0.406,0.987-0.865,1.399-1.376c0.745,2.553,2.628,4.615,5.066,5.603c0.783,0.317,1.622,0.522,2.499,0.598
	c0.088,0.008,0.178,0.009,0.267,0.014c0.162,0.009,0.321,0.024,0.485,0.024c1.474,0,2.859-0.37,4.074-1.018
	c0.115-0.062,0.227-0.132,0.339-0.199c-0.013,0.193-0.029,0.385-0.029,0.581c0,1.833,0.572,3.53,1.543,4.931
	c0.432,0.622,0.941,1.183,1.517,1.672c0.122,0.104,0.25,0.201,0.378,0.298c0.515,0.391,1.072,0.727,1.667,0.996
	c-0.049,0.374-0.083,0.752-0.083,1.139c0,0.342,0.025,0.677,0.063,1.009c0.5,4.312,4.157,7.66,8.604,7.66
	c3.88,0,7.163-2.549,8.27-6.063c0.254,0.022,0.509,0.038,0.768,0.038c4.787,0,8.669-3.881,8.669-8.668
	c0-2.194-0.822-4.192-2.166-5.719c0.734-1.273,1.161-2.746,1.161-4.321c0-3.698-2.32-6.846-5.581-8.091
	c0.984-1.406,1.565-3.115,1.565-4.961c0-4.787-3.881-8.668-8.668-8.668c-2.378,0-4.53,0.958-6.097,2.508
	c-1.579-2.127-4.102-3.512-6.956-3.512c-0.135,0-0.267,0.014-0.4,0.02c-0.317-4.498-4.057-8.052-8.637-8.052
	c-4.02,0-7.39,2.739-8.371,6.448c-0.24-0.078-0.485-0.142-0.733-0.199c-1.328-3.084-4.393-5.246-7.964-5.246
	c-4.625,0-8.393,3.626-8.643,8.188c-3.409,0.643-6.109,3.277-6.848,6.65c-1.093-0.498-2.305-0.782-3.585-0.782
	c-4.788,0-8.669,3.88-8.669,8.668c0,2.11,0.756,4.044,2.01,5.547c-4.003,0.767-7.03,4.283-7.03,8.51
	c0,4.787,3.881,8.669,8.669,8.669c0.016,0,0.031-0.002,0.047-0.002c-0.44,1.039-0.685,2.181-0.685,3.381
	c0,4.787,3.882,8.669,8.669,8.669c4.787,0,8.668-3.881,8.668-8.669c0-0.565-0.058-1.116-0.161-1.65
	c-0.025-0.128-0.057-0.252-0.087-0.377C136.756,94.678,136.148,93.478,135.31,92.472z M138.189,76.405
	c0.011,0.063,0.017,0.127,0.029,0.189c-0.018-0.011-0.035-0.021-0.053-0.032C138.176,76.51,138.181,76.457,138.189,76.405z"/>
<path fill="#A1D982" d="M155,154v-17.965c-1,0-2.539-0.073-3.926-0.191c-24.98-2.116-44.329-22.882-44.329-48.205
	c0-26.729,21.255-48.395,48.255-48.395v-17.53c-36,0-65.925,29.516-65.925,65.925c0,36.409,29.925,66.142,65.925,66.142"/>
<path fill="#C0F159" d="M155,153.782c36,0,65.924-29.624,65.924-66.033C220.924,51.34,191,21.715,155,21.715v17.53
	c28,0,48.675,21.667,48.675,48.395c0,24.895-17.837,45.39-42.889,48.085c-1.845,0.199-3.786,0.31-5.786,0.31V154"/>
</svg>
