<?xml version="1.0" encoding="utf-8"?>
<!-- Generator: Adobe Illustrator 17.0.0, SVG Export Plug-In . SVG Version: 6.00 Build 0)  -->
<!DOCTYPE svg PUBLIC "-//W3C//DTD SVG 1.1//EN" "http://www.w3.org/Graphics/SVG/1.1/DTD/svg11.dtd">
<svg version="1.1" id="Layer_1" xmlns="http://www.w3.org/2000/svg" xmlns:xlink="http://www.w3.org/1999/xlink" x="0px" y="0px"
	 width="315px" height="180px" viewBox="0 0 315 180" enable-background="new 0 0 315 180" xml:space="preserve">
<g>
	<path fill="#A1D982" d="M132.531,101.018c16.926-0.193,19.971,8.55,19.971,8.55c0.068-1.116,0.168-2.196,0.287-3.259
		c-2.584-16.354-13.02-21.275-13.02-21.275c9.842,0.772,13.511,7.668,14.847,11.366c0.162-0.563,0.384-1.115,0.384-1.658V75.014
		c-1,0.469-0.702,0.725-0.702,0.725s-9.851-8.622-9.657-19.033c0.188-10.405,10.316-18.66,10.316-18.66S155,38.09,155,38.17V24.673
		c-35,0-63.005,28.433-63.005,63.505c0,33.426,25.62,60.8,58.315,63.3c0.949-15.176,1.022-29.965,1.022-29.965
		C148.273,110.75,132.531,101.018,132.531,101.018z M130.467,65.414c6.012,5.045,6.002,14.949,6.002,14.949
		s-9.752,1.725-15.762-3.323c-6.01-5.042-6.004-14.946-6.004-14.946S124.455,60.369,130.467,65.414z M116.865,102.623
		c-5.482-1.791-8.197-8.549-8.197-8.549s6.176-3.853,11.664-2.062c5.484,1.792,8.197,8.55,8.197,8.55
		S122.35,104.416,116.865,102.623z"/>
	<path fill="#A1D982" d="M155.158,151.682c0.031,0,0.063,0.002,0.094,0.002v-0.004C155.221,151.68,155.189,151.682,155.158,151.682z
		"/>
	<path fill="#A1D982" d="M152.33,151.609c-0.342-0.017-0.682-0.039-1.023-0.061C151.648,151.569,151.988,151.594,152.33,151.609z"/>
	<path fill="#C0F159" d="M155.252,151.684c0.199,0,0.394-0.014,0.594-0.015c-0.197,0.002-0.395,0.01-0.594,0.011V151.684z"/>
	<path fill="#C0F159" d="M164.586,57.074C164.428,65.669,157,72.79,155,75.014v19.728c5-17.396,17.798-24.372,17.798-24.372
		c-14.021,27.393-12.036,39.486-12.036,39.486c8.771-11.074,28.316-10.092,28.316-10.092s-22.51,7.768-26.9,23.473
		c0,0,0.396,14.063,1.557,27.831c-2.029,0.281-4.084,0.47-6.168,0.558c33.914-1.225,60.689-29.152,60.689-63.447
		c0-35.072-28.256-63.505-63.256-63.505V38.17C156,39.249,164.762,47.383,164.586,57.074z M204.994,75.615
		c0,0-2.438,10.247-9.9,13.981c-7.459,3.732-17.121-0.454-17.121-0.454s2.438-10.244,9.896-13.979
		C195.332,71.426,204.994,75.615,204.994,75.615z M176.43,54.377c2.895-5.687,10.742-7.495,10.742-7.495s3.154,7.409,0.256,13.096
		c-2.893,5.684-10.738,7.493-10.738,7.493S173.537,60.063,176.43,54.377z"/>
	<path fill="#FFFFFF" d="M163.742,151.067c-1.16-13.769-1.549-27.831-1.549-27.831c4.391-15.705,26.916-23.473,26.916-23.473
		s-19.514-0.982-28.285,10.092c0,0-1.922-12.094,12.1-39.486c0,0-12.018,6.976-17.672,24.372c-0.176,0.543-0.348,1.095-0.51,1.658
		c-1.336-3.698-5.131-10.594-14.973-11.366c0,0,10.436,4.921,13.02,21.275c-0.119,1.063-0.219,2.143-0.287,3.259
		c0,0-3.045-8.743-19.971-8.55c0,0,15.587,9.732,18.646,20.495c0,0-0.177,14.789-1.177,29.965c0,0.005,0,0.011,0,0.016
		c0,0.022,0.81,0.036,1.122,0.056c0.34,0.021,0.774,0.044,1.116,0.061c0.895,0.044,1.84,0.074,2.744,0.074
		c0.043,0,0.109-0.002,0.152-0.002c0.031,0,0.074-0.002,0.105-0.002c0.199-0.001,0.402-0.009,0.6-0.011
		c0.576-0.009,1.154-0.02,1.727-0.044C159.65,151.537,161.713,151.349,163.742,151.067z"/>
	<path fill="#FFFFFF" d="M187.428,59.978c2.898-5.687-0.256-13.096-0.256-13.096s-7.848,1.809-10.742,7.495
		c-2.893,5.687,0.26,13.094,0.26,13.094S184.535,65.661,187.428,59.978z"/>
	<path fill="#FFFFFF" d="M177.973,89.142c0,0,9.662,4.187,17.121,0.454c7.463-3.733,9.9-13.981,9.9-13.981
		s-9.662-4.189-17.125-0.453C180.41,78.897,177.973,89.142,177.973,89.142z"/>
	<path fill="#FFFFFF" d="M120.707,77.04c6.01,5.048,15.762,3.323,15.762,3.323s0.01-9.904-6.002-14.949
		c-6.012-5.045-15.764-3.32-15.764-3.32S114.697,71.998,120.707,77.04z"/>
	<path fill="#FFFFFF" d="M164.838,57.074c0.176-9.691-8.398-17.825-9.586-18.904c-0.088-0.08-0.139-0.125-0.139-0.125
		s-10.223,8.255-10.41,18.66c-0.193,10.411,9.721,19.033,9.721,19.033s0.314-0.256,0.828-0.725
		C157.687,72.79,164.68,65.669,164.838,57.074z"/>
	<path fill="#FFFFFF" d="M120.332,92.013c-5.488-1.791-11.664,2.062-11.664,2.062s2.715,6.758,8.197,8.549
		c5.484,1.793,11.664-2.061,11.664-2.061S125.816,93.805,120.332,92.013z"/>
</g>
</svg>
