<?xml version="1.0" encoding="utf-8"?>
<!-- Generator: Adobe Illustrator 17.0.0, SVG Export Plug-In . SVG Version: 6.00 Build 0)  -->
<!DOCTYPE svg PUBLIC "-//W3C//DTD SVG 1.1//EN" "http://www.w3.org/Graphics/SVG/1.1/DTD/svg11.dtd">
<svg version="1.1" id="Layer_1" xmlns="http://www.w3.org/2000/svg" xmlns:xlink="http://www.w3.org/1999/xlink" x="0px" y="0px"
	 width="73px" height="68px" viewBox="0 0 73 68" enable-background="new 0 0 73 68" xml:space="preserve">
<path fill="#FFFFFF" d="M53.81,34.072c-0.85,0.06-2.086,0.064-3.035-0.193c-0.16-0.043-0.152-0.098,0.011-0.113
	c4.62-0.421,8.701-2.137,10.847-4.442c0.611-0.656,1.092-1.376,1.434-2.147c0.155-0.349,0.251-0.72,0.379-1.079
	c0.135-0.387,0.16-0.589,0.137-0.689c-0.038-0.16-0.279,0.098-0.326,0.255c-0.064,0.207-0.126,0.413-0.212,0.612
	c-0.18,0.417-0.413,0.813-0.672,1.2c-0.092,0.135-0.235,0.13-0.32-0.012c-0.364-0.602-0.749-1.197-0.885-1.784
	c-0.038-0.16-0.075-0.163-0.081,0.002c-0.049,1.043,0.591,2.274,0.059,3.175c-0.548,0.926-1.889,1.61-3.108,2.15
	c-2.457,1.087-5.685,1.417-8.481,2.193c-2.994,0.831-4.878,2.299-5.925,4.137c-0.082,0.144-0.155,0.129-0.176-0.034
	c-0.015-0.109-0.031-0.219-0.052-0.33c-0.364-2.023-1.084-4.09-1.027-6.073c0.052-1.868,0.861-3.632,2.531-4.955
	c0.395-0.312,0.831-0.597,1.299-0.862c0.289-0.165,1.264-0.632,1.423-0.671c4.069-1.008,7.505-3.221,9.152-5.773
	c0.469-0.728,0.816-1.505,1.033-2.313c0.098-0.366,0.142-0.744,0.212-1.118c0.072-0.375,0.077-0.578,0.051-0.681
	c-0.041-0.16-0.245,0.113-0.269,0.276c-0.031,0.212-0.064,0.425-0.117,0.634c-0.113,0.434-0.276,0.856-0.461,1.27
	c-0.069,0.15-0.201,0.16-0.297,0.026c-0.39-0.549-0.8-1.086-0.989-1.648c-0.052-0.157-0.085-0.155-0.074,0.01
	c0.077,1.04,0.792,2.181,0.42,3.142c-0.384,0.988-1.502,1.835-2.529,2.526c-2.07,1.391-4.915,2.126-7.325,3.249
	c-4.601,2.145-5.819,5.851-5.19,9.827c0.024,0.162-0.061,0.216-0.201,0.132c-0.064-0.038-0.129-0.075-0.196-0.111
	c-0.145-0.077-0.359-0.23-0.477-0.346c-0.557-0.542-1.215-1.053-1.987-1.528c-2.266-1.39-5.009-2.444-6.909-4.06
	c-0.942-0.803-1.956-1.773-2.223-2.799c-0.261-0.997,0.578-2.049,0.772-3.074c0.031-0.162-0.002-0.168-0.07-0.018
	c-0.253,0.537-0.72,1.025-1.17,1.525c-0.111,0.122-0.242,0.097-0.293-0.06c-0.137-0.433-0.251-0.868-0.313-1.313
	c-0.029-0.214-0.038-0.429-0.046-0.643c-0.005-0.165-0.176-0.458-0.235-0.305c-0.037,0.099-0.057,0.3-0.028,0.682
	c0.028,0.379,0.029,0.761,0.085,1.136c0.122,0.828,0.38,1.637,0.764,2.415c1.345,2.723,4.507,5.314,8.436,6.777
	c0.153,0.057,0.147,0.117-0.018,0.122c-0.87,0.026-1.918-0.246-2.638-0.494c-0.155-0.054-0.197,0.005-0.083,0.122
	c0.508,0.517,1.327,0.988,2.359,1.036c0.339,0.018,0.643-0.083,0.952-0.179c0.469-0.147,0.498,0.024,0.766,0.22
	c0.436,0.315,0.838,0.65,1.194,1.004c1.508,1.504,2.111,3.35,1.951,5.211c-0.005,0.065-0.012,0.132-0.02,0.199
	c-0.013,0.109-0.069,0.325-0.132,0.476c-0.166,0.395-0.382,0.774-0.614,1.148c-0.087,0.14-0.276,0.188-0.416,0.103
	c-0.242-0.143-0.47-0.294-0.674-0.457c-0.129-0.103-0.142-0.092-0.041,0.038c0.183,0.233,0.367,0.465,0.554,0.697
	c0.104,0.127,0.116,0.343,0.028,0.483c-0.516,0.811-0.983,1.636-1.056,2.584c-0.016,0.201-0.023,0.402-0.021,0.603
	c0.002,0.165-0.067,0.186-0.167,0.056c-0.899-1.156-2.361-1.917-3.224-3.105c-0.18-0.247-0.33-0.513-0.459-0.789
	c-0.069-0.15-0.099-0.315-0.075-0.366c0.023-0.051,0.021-0.058-0.008-0.021c-0.03,0.038-0.101-0.055-0.155-0.212
	c-0.121-0.354-0.216-0.722-0.293-1.097c-0.08-0.395-0.233-0.812-0.057-1.29c0.148-0.408,0.48-0.821,0.705-1.23
	c0.446-0.81,0.83-1.609,1.198-2.411c0.07-0.15,0.054-0.158-0.049-0.03c-0.54,0.684-1.386,1.239-1.972,1.899
	c-0.109,0.124-0.206,0.098-0.232-0.065c-0.611-3.977-2.898-7.138-7.933-7.782c-2.636-0.336-5.57-0.171-7.965-0.867
	c-1.189-0.344-2.513-0.812-3.177-1.637c-0.647-0.802-0.313-2.106-0.557-3.122c-0.039-0.16-0.07-0.152-0.074,0.013
	c-0.01,0.594-0.235,1.23-0.44,1.871c-0.051,0.157-0.181,0.188-0.291,0.065c-0.303-0.338-0.586-0.69-0.826-1.069
	c-0.115-0.183-0.209-0.374-0.306-0.568c-0.072-0.147-0.349-0.346-0.339-0.181c0.006,0.106,0.072,0.297,0.255,0.635
	c0.181,0.333,0.338,0.681,0.544,1.001c0.452,0.703,1.019,1.337,1.688,1.887c2.344,1.931,6.292,2.994,10.473,2.717
	c0.165-0.011,0.183,0.048,0.036,0.119c-0.784,0.381-1.851,0.563-2.609,0.632c-0.165,0.016-0.179,0.087-0.026,0.145
	c0.676,0.265,1.616,0.357,2.576-0.021c0.318-0.124,0.552-0.341,0.795-0.557c0.367-0.325,0.464-0.181,0.789-0.113
	c0.526,0.109,1.03,0.25,1.5,0.426c1.993,0.753,3.299,2.187,3.918,3.952c0.656,1.871,0.599,4.06,0.868,6.098
	c0.088,0.676,0.256,1.295,0.485,1.876c0.061,0.153,0.015,0.362-0.108,0.474c-0.184,0.166-0.361,0.336-0.519,0.514
	c-0.109,0.122-0.206,0.097-0.232-0.065c-0.61-3.977-2.898-7.138-7.932-7.782c-2.637-0.338-5.57-0.173-7.965-0.867
	c-1.188-0.344-2.512-0.813-3.177-1.637c-0.647-0.803-0.313-2.106-0.557-3.122c-0.039-0.16-0.07-0.152-0.074,0.013
	c-0.01,0.593-0.235,1.23-0.441,1.871c-0.051,0.157-0.181,0.186-0.29,0.064c-0.304-0.338-0.586-0.689-0.826-1.067
	c-0.114-0.183-0.209-0.376-0.305-0.568c-0.072-0.148-0.349-0.346-0.34-0.181c0.007,0.106,0.072,0.297,0.255,0.633
	c0.181,0.333,0.338,0.682,0.544,1.001c0.452,0.703,1.019,1.337,1.688,1.889c2.344,1.93,6.292,2.994,10.473,2.717
	c0.165-0.011,1.236,0.137,1.559,0.206c0.527,0.109,1.03,0.248,1.502,0.424c1.993,0.753,3.299,2.189,3.918,3.952
	c0.656,1.871,0.599,4.06,0.867,6.098c0.274,2.08,1.281,3.639,2.599,5.118c0.111,0.122,0.085,0.155-0.065,0.087
	c-0.653-0.305-1.487-0.498-2.444-0.349c-0.163,0.025-0.16,0.049,0.005,0.057c1.619,0.082,2.447,1.309,3.233,2.16
	c0.183,0.198,0.367,0.393,0.573,0.575c0.321,0.284,0.238,0.993,0.285,1.43c0.051,0.478,0.092,0.96,0.134,1.441
	c0.114,4.217-0.384,6.999-0.568,7.867c-0.034,0.162,0.062,0.255,0.222,0.216c0.62-0.147,0.875-0.088,1.618,0.075
	c0.845,0.188,7.056,0.307,6.774,0c-0.281-0.307-1.62-9.208-1.515-9.487c0.402-1.076,0.519-2.22,0.46-3.389
	c-0.008-0.165,0.061-0.407,0.163-0.534c0.494-0.617,1.143-1.167,2.178-1.367c0.162-0.033,0.16-0.054-0.005-0.052
	c-0.873,0.007-1.609,0.224-2.202,0.522c-0.149,0.075-0.273,0.079-0.284-0.002c-0.011-0.08,0.049-0.256,0.134-0.397
	c0.921-1.507,1.513-3.066,1.383-4.934c-0.064-0.94-0.211-1.9-0.318-2.854c-0.02-0.163,0.07-0.38,0.196-0.486
	c0.266-0.222,0.526-0.444,0.784-0.67c0.124-0.107,0.114-0.122-0.033-0.047c-0.188,0.098-0.387,0.18-0.594,0.255
	c-0.155,0.057-0.168,0.028-0.02-0.043c0.075-0.036,0.153-0.07,0.235-0.101c0.154-0.059,0.15-0.082-0.013-0.056
	c-0.126,0.02-0.247,0.046-0.364,0.075c-0.16,0.039-0.297-0.051-0.305-0.216c-0.039-0.69-0.028-1.37,0.078-2.026
	c0.297-1.845,1.412-3.482,3.42-4.56c0.474-0.253,0.993-0.475,1.541-0.672c0.34-0.121,0.413-0.281,0.882-0.02
	c0.31,0.171,0.612,0.346,0.984,0.415c1.135,0.216,2.145-0.041,2.823-0.418C53.997,34.124,53.974,34.06,53.81,34.072L53.81,34.072z
	 M33.331,44.782c0.149-0.407,0.48-0.821,0.705-1.23c0.049-0.087,0.094-0.175,0.14-0.261c0.078-0.145,0.204-0.145,0.287-0.003
	c0.418,0.697,0.926,1.345,1.489,1.979c0.111,0.124,0.083,0.157-0.065,0.087c-0.626-0.29-1.419-0.477-2.327-0.361
	c-0.163,0.021-0.285-0.012-0.269-0.084C33.302,44.868,33.315,44.826,33.331,44.782L33.331,44.782z M37.611,51.673
	c-0.898-1.161-2.366-1.925-3.233-3.115c-0.524-0.722-0.805-1.584-0.988-2.485c-0.047-0.229-0.117-0.464-0.134-0.715
	c-0.012-0.165,0.142-0.299,0.307-0.286c1.544,0.132,2.353,1.317,3.12,2.149c0.181,0.197,0.367,0.393,0.571,0.575
	c0.322,0.284,0.24,0.993,0.286,1.432c0.085,0.792,0.147,1.593,0.217,2.39C37.772,51.782,37.71,51.804,37.611,51.673L37.611,51.673z
	 M42.574,42.431c0.011-0.026,0.023-0.02,0.021,0.015c0,0.034-0.013,0.054-0.023,0.047C42.56,42.485,42.562,42.457,42.574,42.431
	L42.574,42.431z M42.807,45.371c-0.006,0.733-0.087,1.453-0.33,2.121c-0.057,0.153-0.142,0.145-0.178-0.015
	c-0.042-0.194-0.083-0.389-0.124-0.583c-0.088-0.433-0.382-1.082-0.163-1.451c0.142-0.234,0.258-0.477,0.371-0.72
	c0.046-0.094,0.088-0.193,0.132-0.294c0.067-0.15,0.191-0.157,0.238,0C42.851,44.754,42.81,45.072,42.807,45.371L42.807,45.371z
	 M42.807,45.371"/>
<path fill="#FFFFFF" d="M41.454,18.643c0,1.198-0.971,2.17-2.17,2.17c-1.2,0-2.171-0.971-2.171-2.17c0-1.198,0.971-2.17,2.171-2.17
	C40.482,16.473,41.454,17.445,41.454,18.643L41.454,18.643z M41.454,18.643"/>
<path fill="#FFFFFF" d="M36.438,19.645c0,1.198-0.971,2.172-2.17,2.172c-1.2,0-2.171-0.973-2.171-2.172
	c0-1.198,0.971-2.17,2.171-2.17C35.467,17.475,36.438,18.447,36.438,19.645L36.438,19.645z M36.438,19.645"/>
<path fill="#FFFFFF" d="M25.743,20.909c0,1.198-0.971,2.17-2.17,2.17c-1.2,0-2.172-0.971-2.172-2.17c0-1.2,0.972-2.172,2.172-2.172
	C24.772,18.737,25.743,19.709,25.743,20.909L25.743,20.909z M25.743,20.909"/>
<path fill="#FFFFFF" d="M27.75,25.589c0,1.198-0.971,2.17-2.171,2.17c-1.199,0-2.17-0.971-2.17-2.17c0-1.198,0.971-2.171,2.17-2.171
	C26.779,23.418,27.75,24.391,27.75,25.589L27.75,25.589z M27.75,25.589"/>
<path fill="#FFFFFF" d="M31.544,18.11c0,1.2-0.973,2.172-2.171,2.172c-1.199,0-2.17-0.972-2.17-2.172c0-1.198,0.971-2.17,2.17-2.17
	C30.571,15.941,31.544,16.912,31.544,18.11L31.544,18.11z M31.544,18.11"/>
<path fill="#FFFFFF" d="M47.584,17.684c0,1.198-0.973,2.171-2.171,2.171c-1.199,0-2.17-0.973-2.17-2.171
	c0-1.198,0.971-2.17,2.17-2.17C46.611,15.514,47.584,16.486,47.584,17.684L47.584,17.684z M47.584,17.684"/>
<path fill="#FFFFFF" d="M43.052,13.601c0,1.199-0.973,2.17-2.171,2.17c-1.198,0-2.17-0.971-2.17-2.17c0-1.2,0.972-2.171,2.17-2.171
	C42.079,11.43,43.052,12.401,43.052,13.601L43.052,13.601z M43.052,13.601"/>
<path fill="#FFFFFF" d="M49.623,27.551c0,1.198-0.971,2.172-2.17,2.172c-1.198,0-2.171-0.973-2.171-2.172
	c0-1.198,0.973-2.17,2.171-2.17C48.652,25.382,49.623,26.353,49.623,27.551L49.623,27.551z M49.623,27.551"/>
<path fill="#FFFFFF" d="M47.453,31.72c0,1.198-0.971,2.17-2.171,2.17c-1.198,0-2.17-0.971-2.17-2.17c0-1.2,0.971-2.171,2.17-2.171
	C46.482,29.548,47.453,30.52,47.453,31.72L47.453,31.72z M47.453,31.72"/>
<path fill="#FFFFFF" d="M26.107,15.849c0,1.198-0.971,2.17-2.17,2.17c-1.2,0-2.172-0.972-2.172-2.17c0-1.2,0.972-2.171,2.172-2.171
	C25.136,13.678,26.107,14.649,26.107,15.849L26.107,15.849z M26.107,15.849"/>
<path fill="#FFFFFF" d="M19.866,19.776c0,1.2-0.972,2.171-2.17,2.171c-1.2,0-2.171-0.971-2.171-2.171c0-1.198,0.971-2.17,2.171-2.17
	C18.895,17.606,19.866,18.578,19.866,19.776L19.866,19.776z M19.866,19.776"/>
<path fill="#FFFFFF" d="M22.036,24.784c0,1.2-0.971,2.171-2.17,2.171c-1.199,0-2.17-0.971-2.17-2.171c0-1.198,0.971-2.17,2.17-2.17
	C21.064,22.615,22.036,23.586,22.036,24.784L22.036,24.784z M22.036,24.784"/>
<path fill="#FFFFFF" d="M20.647,14.48c0,1.198-0.971,2.17-2.17,2.17c-1.2,0-2.171-0.971-2.171-2.17c0-1.2,0.971-2.171,2.171-2.171
	C19.675,12.308,20.647,13.28,20.647,14.48L20.647,14.48z M20.647,14.48"/>
<path fill="#FFFFFF" d="M48.252,12.178c0,1.198-0.972,2.17-2.17,2.17c-1.198,0-2.171-0.971-2.171-2.17
	c0-1.198,0.973-2.171,2.171-2.171C47.28,10.006,48.252,10.979,48.252,12.178L48.252,12.178z M48.252,12.178"/>
<path fill="#FFFFFF" d="M56.054,25.085c0,1.198-0.972,2.17-2.17,2.17c-1.2,0-2.171-0.971-2.171-2.17c0-1.2,0.971-2.171,2.171-2.171
	C55.082,22.914,56.054,23.885,56.054,25.085L56.054,25.085z M56.054,25.085"/>
<path fill="#FFFFFF" d="M54.047,29.765c0,1.198-0.972,2.17-2.17,2.17s-2.171-0.972-2.171-2.17c0-1.198,0.973-2.171,2.171-2.171
	S54.047,28.567,54.047,29.765L54.047,29.765z M54.047,29.765"/>
<path fill="#FFFFFF" d="M60.958,21.242c0,1.2-0.973,2.171-2.171,2.171c-1.199,0-2.17-0.971-2.17-2.171c0-1.199,0.971-2.17,2.17-2.17
	C59.985,19.072,60.958,20.043,60.958,21.242L60.958,21.242z M60.958,21.242"/>
<path fill="#FFFFFF" d="M60.558,26.936c0,1.198-0.971,2.17-2.17,2.17c-1.2,0-2.171-0.971-2.171-2.17c0-1.2,0.971-2.172,2.171-2.172
	C59.587,24.765,60.558,25.736,60.558,26.936L60.558,26.936z M60.558,26.936"/>
<path fill="#FFFFFF" d="M15.416,36.418c0,1.198-0.971,2.17-2.171,2.17c-1.198,0-2.17-0.971-2.17-2.17
	c0-1.198,0.972-2.171,2.17-2.171C14.444,34.247,15.416,35.22,15.416,36.418L15.416,36.418z M15.416,36.418"/>
<path fill="#FFFFFF" d="M11.075,32.613c0,1.2-0.971,2.171-2.17,2.171c-1.198,0-2.171-0.971-2.171-2.171
	c0-1.199,0.973-2.17,2.171-2.17C10.103,30.443,11.075,31.414,11.075,32.613L11.075,32.613z M11.075,32.613"/>
<path fill="#FFFFFF" d="M40.812,37.877c0,1.198-0.971,2.172-2.17,2.172c-1.198,0-2.17-0.973-2.17-2.172
	c0-1.198,0.971-2.17,2.17-2.17C39.841,35.708,40.812,36.679,40.812,37.877L40.812,37.877z M40.812,37.877"/>
<path fill="#FFFFFF" d="M64.747,17.271c0,1.198-0.971,2.171-2.171,2.171c-1.198,0-2.17-0.973-2.17-2.171
	c0-1.199,0.971-2.17,2.17-2.17C63.776,15.102,64.747,16.073,64.747,17.271L64.747,17.271z M64.747,17.271"/>
<path fill="#FFFFFF" d="M65.761,22.581c0,1.198-0.971,2.17-2.169,2.17c-1.199,0-2.172-0.971-2.172-2.17
	c0-1.2,0.973-2.172,2.172-2.172C64.789,20.409,65.761,21.381,65.761,22.581L65.761,22.581z M65.761,22.581"/>
<path fill="#FFFFFF" d="M51.459,38.588c0,1.199-0.971,2.17-2.171,2.17c-1.198,0-2.17-0.971-2.17-2.17
	c0-1.198,0.971-2.171,2.17-2.171C50.488,36.416,51.459,37.389,51.459,38.588L51.459,38.588z M51.459,38.588"/>
<path fill="#FFFFFF" d="M46.723,6.802c0,1.198-0.971,2.17-2.171,2.17c-1.198,0-2.17-0.971-2.17-2.17c0-1.198,0.971-2.172,2.17-2.172
	C45.752,4.63,46.723,5.604,46.723,6.802L46.723,6.802z M46.723,6.802"/>
<path fill="#FFFFFF" d="M57.049,37.543c0,1.2-0.971,2.172-2.17,2.172c-1.198,0-2.17-0.971-2.17-2.172c0-1.198,0.971-2.17,2.17-2.17
	C56.078,35.373,57.049,36.344,57.049,37.543L57.049,37.543z M57.049,37.543"/>
<path fill="#FFFFFF" d="M62.123,34.224c0,1.198-0.971,2.17-2.17,2.17c-1.199,0-2.17-0.971-2.17-2.17c0-1.198,0.971-2.171,2.17-2.171
	C61.152,32.053,62.123,33.026,62.123,34.224L62.123,34.224z M62.123,34.224"/>
<path fill="#FFFFFF" d="M66.465,30.725c0,1.198-0.972,2.17-2.17,2.17c-1.198,0-2.171-0.971-2.171-2.17
	c0-1.198,0.973-2.171,2.171-2.171C65.493,28.554,66.465,29.527,66.465,30.725L66.465,30.725z M66.465,30.725"/>
<path fill="#FFFFFF" d="M17.896,9.763c0,1.198-0.972,2.171-2.17,2.171c-1.2,0-2.171-0.973-2.171-2.171
	c0-1.198,0.971-2.17,2.171-2.17C16.924,7.593,17.896,8.565,17.896,9.763L17.896,9.763z M17.896,9.763"/>
<path fill="#FFFFFF" d="M30.782,7.089c0,1.198-0.971,2.17-2.17,2.17c-1.198,0-2.17-0.972-2.17-2.17c0-1.198,0.971-2.171,2.17-2.171
	C29.81,4.918,30.782,5.891,30.782,7.089L30.782,7.089z M30.782,7.089"/>
<path fill="#FFFFFF" d="M37.945,4.63c0,1.2-0.971,2.172-2.17,2.172c-1.198,0-2.17-0.971-2.17-2.172c0-1.198,0.971-2.17,2.17-2.17
	C36.974,2.461,37.945,3.432,37.945,4.63L37.945,4.63z M37.945,4.63"/>
<path fill="#FFFFFF" d="M45.891,22.352c0,1.198-0.973,2.17-2.171,2.17c-1.198,0-2.17-0.971-2.17-2.17
	c0-1.198,0.972-2.171,2.17-2.171C44.918,20.181,45.891,21.154,45.891,22.352L45.891,22.352z M45.891,22.352"/>
<path fill="#FFFFFF" d="M29.941,32.853c0,1.2-0.973,2.171-2.171,2.171c-1.198,0-2.17-0.971-2.17-2.171c0-1.198,0.972-2.17,2.17-2.17
	C28.968,30.683,29.941,31.654,29.941,32.853L29.941,32.853z M29.941,32.853"/>
<path fill="#FFFFFF" d="M18.393,30.725c0,1.198-0.971,2.17-2.17,2.17c-1.198,0-2.172-0.971-2.172-2.17
	c0-1.198,0.973-2.171,2.172-2.171C17.422,28.554,18.393,29.527,18.393,30.725L18.393,30.725z M18.393,30.725"/>
<path fill="#FFFFFF" d="M23.151,32.27c0,1.198-0.971,2.17-2.17,2.17c-1.2,0-2.172-0.972-2.172-2.17c0-1.198,0.971-2.17,2.172-2.17
	C22.18,30.1,23.151,31.071,23.151,32.27L23.151,32.27z M23.151,32.27"/>
<path fill="#FFFFFF" d="M27.492,39.925c0,1.198-0.972,2.17-2.172,2.17c-1.198,0-2.17-0.971-2.17-2.17c0-1.198,0.971-2.17,2.17-2.17
	C26.52,37.755,27.492,38.727,27.492,39.925L27.492,39.925z M27.492,39.925"/>
<path fill="#FFFFFF" d="M21.402,39.495c0,1.199-0.971,2.17-2.17,2.17c-1.198,0-2.17-0.971-2.17-2.17c0-1.198,0.971-2.17,2.17-2.17
	C20.431,37.326,21.402,38.297,21.402,39.495L21.402,39.495z M21.402,39.495"/>
<path fill="#FFFFFF" d="M12.333,26.422c0,1.198-0.971,2.17-2.17,2.17c-1.198,0-2.172-0.972-2.172-2.17s0.973-2.171,2.172-2.171
	C11.362,24.251,12.333,25.224,12.333,26.422L12.333,26.422z M12.333,26.422"/>
<path fill="#FFFFFF" d="M15.172,20.28c0,1.2-0.971,2.171-2.17,2.171c-1.2,0-2.172-0.971-2.172-2.171c0-1.198,0.972-2.17,2.172-2.17
	C14.201,18.11,15.172,19.082,15.172,20.28L15.172,20.28z M15.172,20.28"/>
<path fill="#FFFFFF" d="M10.164,21.519c0,1.198-0.972,2.17-2.172,2.17c-1.198,0-2.17-0.971-2.17-2.17c0-1.2,0.971-2.172,2.17-2.172
	C9.192,19.348,10.164,20.319,10.164,21.519L10.164,21.519z M10.164,21.519"/>
<path fill="#FFFFFF" d="M15.507,15.113c0,1.198-0.971,2.17-2.171,2.17c-1.199,0-2.17-0.971-2.17-2.17c0-1.199,0.971-2.17,2.17-2.17
	C14.536,12.943,15.507,13.915,15.507,15.113L15.507,15.113z M15.507,15.113"/>
<path fill="#FFFFFF" d="M30.782,12.308c0,1.198-0.971,2.171-2.17,2.171c-1.198,0-2.17-0.973-2.17-2.171
	c0-1.199,0.971-2.17,2.17-2.17C29.81,10.139,30.782,11.11,30.782,12.308L30.782,12.308z M30.782,12.308"/>
<path fill="#FFFFFF" d="M41.713,8.839c0,1.2-0.971,2.171-2.17,2.171c-1.199,0-2.17-0.971-2.17-2.171c0-1.198,0.971-2.17,2.17-2.17
	C40.742,6.669,41.713,7.641,41.713,8.839L41.713,8.839z M41.713,8.839"/>
<path fill="#FFFFFF" d="M53.295,13.794c0,1.198-0.971,2.17-2.17,2.17c-1.199,0-2.17-0.972-2.17-2.17c0-1.198,0.971-2.17,2.17-2.17
	C52.323,11.624,53.295,12.596,53.295,13.794L53.295,13.794z M53.295,13.794"/>
<path fill="#FFFFFF" d="M52.961,18.809c0,1.198-0.973,2.17-2.171,2.17c-1.198,0-2.17-0.972-2.17-2.17c0-1.198,0.972-2.17,2.17-2.17
	C51.988,16.64,52.961,17.611,52.961,18.809L52.961,18.809z M52.961,18.809"/>
<path fill="#FFFFFF" d="M58.119,11.01c0,1.198-0.971,2.17-2.171,2.17c-1.199,0-2.17-0.972-2.17-2.17s0.971-2.171,2.17-2.171
	C57.148,8.839,58.119,9.812,58.119,11.01L58.119,11.01z M58.119,11.01"/>
<path fill="#FFFFFF" d="M63.591,12.308c0,1.198-0.972,2.171-2.17,2.171c-1.2,0-2.171-0.973-2.171-2.171
	c0-1.199,0.971-2.17,2.171-2.17C62.62,10.139,63.591,11.11,63.591,12.308L63.591,12.308z M63.591,12.308"/>
<path fill="#FFFFFF" d="M52.462,8.302c0,1.198-0.971,2.171-2.17,2.171c-1.198,0-2.171-0.973-2.171-2.171
	c0-1.199,0.973-2.17,2.171-2.17C51.491,6.132,52.462,7.103,52.462,8.302L52.462,8.302z M52.462,8.302"/>
<path fill="#FFFFFF" d="M35.122,25.119c0,1.198-0.971,2.171-2.17,2.171c-1.2,0-2.171-0.973-2.171-2.171
	c0-1.198,0.971-2.17,2.171-2.17C34.151,22.95,35.122,23.921,35.122,25.119L35.122,25.119z M35.122,25.119"/>
<path fill="#FFFFFF" d="M30.782,44.476c0,1.2-0.971,2.172-2.17,2.172c-1.198,0-2.17-0.972-2.17-2.172c0-1.198,0.971-2.17,2.17-2.17
	C29.81,42.307,30.782,43.278,30.782,44.476L30.782,44.476z M30.782,44.476"/>
<path fill="#FFFFFF" d="M35.775,9.259c0,1.198-0.971,2.17-2.17,2.17c-1.199,0-2.172-0.971-2.172-2.17c0-1.198,0.973-2.17,2.172-2.17
	C34.804,7.089,35.775,8.061,35.775,9.259L35.775,9.259z M35.775,9.259"/>
<path fill="#FFFFFF" d="M36.779,14.274c0,1.198-0.973,2.17-2.171,2.17c-1.198,0-2.17-0.971-2.17-2.17c0-1.198,0.971-2.17,2.17-2.17
	C35.806,12.104,36.779,13.076,36.779,14.274L36.779,14.274z M36.779,14.274"/>
<path fill="#FFFFFF" d="M25.32,10.931c0,1.198-0.971,2.17-2.17,2.17c-1.198,0-2.17-0.971-2.17-2.17s0.971-2.17,2.17-2.17
	C24.349,8.761,25.32,9.732,25.32,10.931L25.32,10.931z M25.32,10.931"/>
<path fill="#FFFFFF" d="M22.816,6.132c0,1.198-0.971,2.17-2.17,2.17c-1.198,0-2.172-0.972-2.172-2.17c0-1.198,0.973-2.17,2.172-2.17
	C21.845,3.963,22.816,4.934,22.816,6.132L22.816,6.132z M22.816,6.132"/>
<path fill="#FFFFFF" d="M40.812,29.044c0,1.198-0.971,2.17-2.17,2.17c-1.198,0-2.17-0.971-2.17-2.17c0-1.199,0.971-2.17,2.17-2.17
	C39.841,26.874,40.812,27.845,40.812,29.044L40.812,29.044z M40.812,29.044"/>
<path fill="#FFFFFF" d="M40.479,24.029c0,1.198-0.973,2.17-2.171,2.17c-1.199,0-2.17-0.971-2.17-2.17c0-1.199,0.971-2.17,2.17-2.17
	C39.506,21.859,40.479,22.83,40.479,24.029L40.479,24.029z"/>
</svg>
