<?xml version="1.0" encoding="utf-8"?>
<!-- Generator: Adobe Illustrator 17.0.0, SVG Export Plug-In . SVG Version: 6.00 Build 0)  -->
<!DOCTYPE svg PUBLIC "-//W3C//DTD SVG 1.1//EN" "http://www.w3.org/Graphics/SVG/1.1/DTD/svg11.dtd">
<svg version="1.1" id="Layer_1" xmlns="http://www.w3.org/2000/svg" xmlns:xlink="http://www.w3.org/1999/xlink" x="0px" y="0px"
	 width="73px" height="68px" viewBox="0 0 73 68" enable-background="new 0 0 73 68" xml:space="preserve">
<path fill="#FFFFFF" d="M51.238,10.494c-7.611,2.001-10.257,8.551-9.808,11.287c0.136-0.083,0.272-0.167,0.408-0.25
	c0.668-0.409,1.403-0.796,2.154-1.197c0.751-0.402,1.562-0.78,2.372-1.161c0.409-0.188,0.842-0.355,1.267-0.53l0.637-0.258
	c0.281-0.107,0.446-0.151,0.675-0.235l1.281-0.425c0.446-0.128,0.887-0.25,1.325-0.378c0.887-0.243,1.745-0.462,2.577-0.629
	c1.669-0.38,3.237-0.66,4.588-0.866c2.69-0.409,4.534-0.493,4.534-0.493s-0.425,0.182-1.161,0.501
	c-0.736,0.303-1.789,0.712-3.063,1.197c-0.637,0.237-1.327,0.485-2.055,0.759c-0.728,0.258-1.5,0.53-2.296,0.811
	c-0.782,0.274-1.593,0.569-2.418,0.856c-0.811,0.281-1.653,0.6-2.496,0.926c-0.788,0.295-1.615,0.689-2.41,1.009
	c-0.803,0.363-2.168,0.833-2.94,1.166c-0.934,0.386-1.523,0.6-2.115,0.918c-6.641,3.874-9.576,10.726-11.373,17.981
	c-0.318-6.814-1.751-13.426-6.67-18.307c0.008,0,0.016,0,0.016-0.008c-0.66-0.621-1.357-1.289-2.071-2.009
	c-0.582-0.607-1.197-1.205-1.803-1.844c-0.615-0.606-1.228-1.281-1.844-1.849c-0.658-0.629-1.31-1.242-1.954-1.811
	c-0.652-0.584-1.289-1.161-1.912-1.714c-0.629-0.569-1.234-1.106-1.811-1.63c-0.569-0.522-1.108-1.015-1.607-1.479
	c-0.986-0.932-1.813-1.712-2.374-2.28C8.33,7.977,8.012,7.651,8.012,7.651s1.667,0.772,4.002,2.183
	c1.168,0.712,2.509,1.56,3.905,2.546c0.704,0.477,1.417,1.009,2.144,1.57c0.357,0.287,0.722,0.569,1.077,0.856l1.023,0.879
	c0.182,0.167,0.32,0.266,0.532,0.477l0.501,0.485c0.326,0.32,0.66,0.639,0.963,0.97c0.613,0.66,1.213,1.32,1.751,1.972
	c0.545,0.66,1.069,1.296,1.531,1.933c0.099,0.138,0.19,0.258,0.289,0.394c1.456-2.364,1.508-9.43-4.761-14.183
	C14.137,2.564,4.623,4.883,0.635,2.974C4.66,9.128,3.888,13.238,10.649,19.992c4.518,4.518,8.733,4.799,11.576,4.017
	c5.778,5.566,6.678,14.049,6.686,22.159c-0.59-0.477-1.31-0.848-2.137-0.848c-2.342,0-4.048,1.312-4.86,3.191
	c-5.155-1.751-8.574,2.321-8.869,5.754c-2.449-0.916-5.558,1.904-5.558,4.351c0,2.42,1.912,4.374,4.306,4.481l37.904,0.068
	c0,0,4.041-2.183,4.041-4.549c0-2.478-2.016-4.495-4.495-4.495c-0.342,0-0.675,0.047-0.994,0.114
	c0.023-0.175-0.433-7.802-7.064-4.739c-0.516-2.387-1.192-4.176-5.178-4.176c-1.956,0-3.292,0.712-4.14,1.432
	c1.659-8.436,4.223-17.261,11.697-21.62c0.083-0.047,0.13-0.115,0.182-0.167c2.311,1.857,6.352,3.282,12.341,0.796
	c8.832-3.662,9.68-7.755,15.753-11.91C67.431,14.102,59.525,8.324,51.238,10.494L51.238,10.494z"/>
<path d="M30.581,48.179l0.25-0.25c-0.13,0.188-0.206,0.334-0.206,0.334S30.602,48.216,30.581,48.179L30.581,48.179z"/>
<path d="M30.581,48.179"/>
<rect x="0.635" y="2.974" fill="none" width="71.729" height="62.053"/>
</svg>
